<?xml version="1.0" encoding="UTF-8" standalone="no"?>
<!DOCTYPE svg PUBLIC "-//W3C//DTD SVG 1.1//EN"
 "http://www.w3.org/Graphics/SVG/1.1/DTD/svg11.dtd">
<!-- Generated by graphviz version 2.43.0 (0)
 -->
<!-- Title: %3 Pages: 1 -->
<svg width="985pt" height="354pt"
 viewBox="0.00 0.00 985.00 354.48" xmlns="http://www.w3.org/2000/svg" xmlns:xlink="http://www.w3.org/1999/xlink">
<g id="graph0" class="graph" transform="scale(1 1) rotate(0) translate(4 350.48)">
<title>%3</title>
<polygon fill="white" stroke="transparent" points="-4,4 -4,-350.48 981,-350.48 981,4 -4,4"/>
<g id="clust1" class="cluster">
<title>cluster_AddFunc</title>
<polygon fill="none" stroke="red" points="8,-82 8,-338.48 482,-338.48 482,-82 8,-82"/>
<text text-anchor="middle" x="245" y="-323.28" font-family="Times,serif" font-size="14.00">AddFunc</text>
</g>
<g id="clust2" class="cluster">
<title>cluster_main</title>
<polygon fill="none" stroke="red" points="490,-8 490,-338.48 969,-338.48 969,-8 490,-8"/>
<text text-anchor="middle" x="729.5" y="-323.28" font-family="Times,serif" font-size="14.00">main</text>
</g>
<!-- 7 -->
<g id="node1" class="node">
<title>7</title>
<ellipse fill="none" stroke="blue" cx="381" cy="-280.61" rx="92.76" ry="26.74"/>
<text text-anchor="middle" x="381" y="-284.41" font-family="Times,serif" font-size="14.00">Var(Input)</text>
<text text-anchor="middle" x="381" y="-269.41" font-family="Times,serif" font-size="14.00">name_hint: data</text>
</g>
<!-- 10 -->
<g id="node4" class="node">
<title>10</title>
<polygon fill="none" stroke="blue" points="206,-208.87 152,-208.87 152,-172.87 206,-172.87 206,-208.87"/>
<text text-anchor="middle" x="179" y="-187.17" font-family="Times,serif" font-size="14.00">Call</text>
</g>
<!-- 7&#45;&gt;10 -->
<g id="edge2" class="edge">
<title>7&#45;&gt;10</title>
<path fill="none" stroke="black" d="M331.07,-257.92C295.28,-242.38 247.89,-221.79 215.58,-207.76"/>
<polygon fill="black" stroke="black" points="216.64,-204.4 206.07,-203.63 213.85,-210.82 216.64,-204.4"/>
</g>
<!-- 8 -->
<g id="node2" class="node">
<title>8</title>
<ellipse fill="none" stroke="blue" cx="179" cy="-280.61" rx="91.43" ry="26.74"/>
<text text-anchor="middle" x="179" y="-284.41" font-family="Times,serif" font-size="14.00">Var(Input)</text>
<text text-anchor="middle" x="179" y="-269.41" font-family="Times,serif" font-size="14.00">name_hint: bias</text>
</g>
<!-- 8&#45;&gt;10 -->
<g id="edge3" class="edge">
<title>8&#45;&gt;10</title>
<path fill="none" stroke="black" d="M179,-253.29C179,-242.53 179,-230.1 179,-219.24"/>
<polygon fill="black" stroke="black" points="182.5,-219.03 179,-209.03 175.5,-219.03 182.5,-219.03"/>
</g>
<!-- 9 -->
<g id="node3" class="node">
<title>9</title>
<polygon fill="none" stroke="blue" points="70,-298.61 16,-298.61 16,-262.61 70,-262.61 70,-298.61"/>
<text text-anchor="middle" x="43" y="-276.91" font-family="Times,serif" font-size="14.00">add</text>
</g>
<!-- 9&#45;&gt;10 -->
<g id="edge1" class="edge">
<title>9&#45;&gt;10</title>
<path fill="none" stroke="black" d="M66.46,-262.4C70.6,-259.46 74.9,-256.47 79,-253.74 99.96,-239.75 123.96,-224.86 143.19,-213.2"/>
<polygon fill="black" stroke="black" points="145.19,-216.08 151.94,-207.92 141.57,-210.09 145.19,-216.08"/>
</g>
<!-- 11 -->
<g id="node5" class="node">
<title>11</title>
<polygon fill="none" stroke="blue" points="262,-128 96,-128 96,-90 262,-90 262,-128"/>
<text text-anchor="middle" x="179" y="-112.8" font-family="Times,serif" font-size="14.00">Func</text>
<text text-anchor="middle" x="179" y="-97.8" font-family="Times,serif" font-size="14.00">[Var(data), Var(bias)]</text>
</g>
<!-- 10&#45;&gt;11 -->
<g id="edge4" class="edge">
<title>10&#45;&gt;11</title>
<path fill="none" stroke="black" d="M179,-172.54C179,-162.49 179,-149.6 179,-138.14"/>
<polygon fill="black" stroke="black" points="182.5,-138.13 179,-128.13 175.5,-138.13 182.5,-138.13"/>
</g>
<!-- 0 -->
<g id="node6" class="node">
<title>0</title>
<ellipse fill="none" stroke="blue" cx="885" cy="-280.61" rx="76.24" ry="26.74"/>
<text text-anchor="middle" x="885" y="-284.41" font-family="Times,serif" font-size="14.00">Var(Input)</text>
<text text-anchor="middle" x="885" y="-269.41" font-family="Times,serif" font-size="14.00">name_hint: x</text>
</g>
<!-- 4 -->
<g id="node10" class="node">
<title>4</title>
<polygon fill="none" stroke="blue" points="713,-208.87 659,-208.87 659,-172.87 713,-172.87 713,-208.87"/>
<text text-anchor="middle" x="686" y="-187.17" font-family="Times,serif" font-size="14.00">Call</text>
</g>
<!-- 0&#45;&gt;4 -->
<g id="edge6" class="edge">
<title>0&#45;&gt;4</title>
<path fill="none" stroke="black" d="M828.72,-262.3C796.56,-251.42 756,-236 722,-217.74 720.22,-216.78 718.43,-215.75 716.64,-214.67"/>
<polygon fill="black" stroke="black" points="718.17,-211.49 707.88,-208.96 714.35,-217.35 718.17,-211.49"/>
</g>
<!-- 1 -->
<g id="node7" class="node">
<title>1</title>
<ellipse fill="none" stroke="blue" cx="714" cy="-280.61" rx="76.24" ry="26.74"/>
<text text-anchor="middle" x="714" y="-284.41" font-family="Times,serif" font-size="14.00">Var(Input)</text>
<text text-anchor="middle" x="714" y="-269.41" font-family="Times,serif" font-size="14.00">name_hint: y</text>
</g>
<!-- 1&#45;&gt;4 -->
<g id="edge7" class="edge">
<title>1&#45;&gt;4</title>
<path fill="none" stroke="black" d="M705.75,-253.76C702.22,-242.69 698.09,-229.77 694.53,-218.61"/>
<polygon fill="black" stroke="black" points="697.83,-217.41 691.45,-208.95 691.16,-219.54 697.83,-217.41"/>
</g>
<!-- 2 -->
<g id="node8" class="node">
<title>2</title>
<ellipse fill="none" stroke="blue" cx="807" cy="-190.87" rx="75.82" ry="26.74"/>
<text text-anchor="middle" x="807" y="-194.67" font-family="Times,serif" font-size="14.00">Var(Input)</text>
<text text-anchor="middle" x="807" y="-179.67" font-family="Times,serif" font-size="14.00">name_hint: z</text>
</g>
<!-- 5 -->
<g id="node11" class="node">
<title>5</title>
<polygon fill="none" stroke="blue" points="713,-127 659,-127 659,-91 713,-91 713,-127"/>
<text text-anchor="middle" x="686" y="-105.3" font-family="Times,serif" font-size="14.00">Call</text>
</g>
<!-- 2&#45;&gt;5 -->
<g id="edge9" class="edge">
<title>2&#45;&gt;5</title>
<path fill="none" stroke="black" d="M772.33,-166.98C756.06,-156.25 736.74,-143.49 720.5,-132.77"/>
<polygon fill="black" stroke="black" points="722.1,-129.64 711.83,-127.05 718.25,-135.48 722.1,-129.64"/>
</g>
<!-- 3 -->
<g id="node9" class="node">
<title>3</title>
<ellipse fill="none" stroke="blue" cx="559" cy="-280.61" rx="60.62" ry="26.74"/>
<text text-anchor="middle" x="559" y="-284.41" font-family="Times,serif" font-size="14.00">GlobalVar</text>
<text text-anchor="middle" x="559" y="-269.41" font-family="Times,serif" font-size="14.00">AddFunc</text>
</g>
<!-- 3&#45;&gt;4 -->
<g id="edge5" class="edge">
<title>3&#45;&gt;4</title>
<path fill="none" stroke="black" d="M591.05,-257.47C609.91,-244.44 633.72,-227.99 652.79,-214.82"/>
<polygon fill="black" stroke="black" points="654.94,-217.59 661.17,-209.02 650.96,-211.83 654.94,-217.59"/>
</g>
<!-- 3&#45;&gt;5 -->
<g id="edge8" class="edge">
<title>3&#45;&gt;5</title>
<path fill="none" stroke="black" d="M577.47,-254.95C601.34,-223.07 642.7,-167.82 666.89,-135.53"/>
<polygon fill="black" stroke="black" points="669.74,-137.55 672.93,-127.45 664.14,-133.36 669.74,-137.55"/>
</g>
<!-- 4&#45;&gt;5 -->
<g id="edge10" class="edge">
<title>4&#45;&gt;5</title>
<path fill="none" stroke="black" d="M686,-172.54C686,-162.21 686,-148.88 686,-137.18"/>
<polygon fill="black" stroke="black" points="689.5,-137.02 686,-127.02 682.5,-137.02 689.5,-137.02"/>
</g>
<!-- 6 -->
<g id="node12" class="node">
<title>6</title>
<polygon fill="none" stroke="blue" points="772.5,-54 599.5,-54 599.5,-16 772.5,-16 772.5,-54"/>
<text text-anchor="middle" x="686" y="-38.8" font-family="Times,serif" font-size="14.00">Func</text>
<text text-anchor="middle" x="686" y="-23.8" font-family="Times,serif" font-size="14.00">[Var(x), Var(y), Var(z)]</text>
</g>
<!-- 5&#45;&gt;6 -->
<g id="edge11" class="edge">
<title>5&#45;&gt;6</title>
<path fill="none" stroke="black" d="M686,-90.94C686,-82.99 686,-73.31 686,-64.31"/>
<polygon fill="black" stroke="black" points="689.5,-64.2 686,-54.2 682.5,-64.2 689.5,-64.2"/>
</g>
</g>
</svg>
