<?xml version="1.0" encoding="UTF-8" standalone="no"?>
<!DOCTYPE svg PUBLIC "-//W3C//DTD SVG 1.1//EN"
 "http://www.w3.org/Graphics/SVG/1.1/DTD/svg11.dtd">
<!-- Generated by graphviz version 2.43.0 (0)
 -->
<!-- Title: cluster_main Pages: 1 -->
<svg width="852pt" height="477pt"
 viewBox="0.00 0.00 851.52 477.33" xmlns="http://www.w3.org/2000/svg" xmlns:xlink="http://www.w3.org/1999/xlink">
<g id="graph0" class="graph" transform="scale(1 1) rotate(0) translate(4 473.33)">
<title>cluster_main</title>
<polygon fill="white" stroke="transparent" points="-4,4 -4,-473.33 847.52,-473.33 847.52,4 -4,4"/>
<text text-anchor="middle" x="421.76" y="-7.8" font-family="Times,serif" font-size="14.00">main</text>
<!-- 0 -->
<g id="node1" class="node">
<title>0</title>
<ellipse fill="none" stroke="blue" cx="82.02" cy="-421.25" rx="82.05" ry="48.17"/>
<text text-anchor="middle" x="82.02" y="-440.05" font-family="Times,serif" font-size="14.00">Var(Input)</text>
<text text-anchor="middle" x="82.02" y="-425.05" font-family="Times,serif" font-size="14.00">name_hint: x</text>
<text text-anchor="middle" x="82.02" y="-410.05" font-family="Times,serif" font-size="14.00">shape: (8, 8)</text>
<text text-anchor="middle" x="82.02" y="-395.05" font-family="Times,serif" font-size="14.00">dtype: float32</text>
</g>
<!-- 5 -->
<g id="node6" class="node">
<title>5</title>
<polygon fill="none" stroke="blue" points="291.02,-337.17 237.02,-337.17 237.02,-301.17 291.02,-301.17 291.02,-337.17"/>
<text text-anchor="middle" x="264.02" y="-315.47" font-family="Times,serif" font-size="14.00">Call</text>
</g>
<!-- 0&#45;&gt;5 -->
<g id="edge2" class="edge">
<title>0&#45;&gt;5</title>
<path fill="none" stroke="black" d="M141.11,-387.76C169.65,-372.07 202.97,-353.74 227.71,-340.13"/>
<polygon fill="black" stroke="black" points="229.68,-343.05 236.75,-335.16 226.3,-336.92 229.68,-343.05"/>
</g>
<!-- 1 -->
<g id="node2" class="node">
<title>1</title>
<ellipse fill="none" stroke="blue" cx="264.02" cy="-421.25" rx="82.05" ry="48.17"/>
<text text-anchor="middle" x="264.02" y="-440.05" font-family="Times,serif" font-size="14.00">Var(Input)</text>
<text text-anchor="middle" x="264.02" y="-425.05" font-family="Times,serif" font-size="14.00">name_hint: y</text>
<text text-anchor="middle" x="264.02" y="-410.05" font-family="Times,serif" font-size="14.00">shape: (8, 8)</text>
<text text-anchor="middle" x="264.02" y="-395.05" font-family="Times,serif" font-size="14.00">dtype: float32</text>
</g>
<!-- 1&#45;&gt;5 -->
<g id="edge3" class="edge">
<title>1&#45;&gt;5</title>
<path fill="none" stroke="black" d="M264.02,-373.14C264.02,-364.35 264.02,-355.45 264.02,-347.51"/>
<polygon fill="black" stroke="black" points="267.52,-347.39 264.02,-337.39 260.52,-347.39 267.52,-347.39"/>
</g>
<!-- 2 -->
<g id="node3" class="node">
<title>2</title>
<ellipse fill="none" stroke="blue" cx="422.02" cy="-217.08" rx="82.05" ry="48.17"/>
<text text-anchor="middle" x="422.02" y="-235.88" font-family="Times,serif" font-size="14.00">Var(Input)</text>
<text text-anchor="middle" x="422.02" y="-220.88" font-family="Times,serif" font-size="14.00">name_hint: z</text>
<text text-anchor="middle" x="422.02" y="-205.88" font-family="Times,serif" font-size="14.00">shape: (8, 8)</text>
<text text-anchor="middle" x="422.02" y="-190.88" font-family="Times,serif" font-size="14.00">dtype: float32</text>
</g>
<!-- 7 -->
<g id="node8" class="node">
<title>7</title>
<polygon fill="none" stroke="blue" points="449.02,-133 395.02,-133 395.02,-97 449.02,-97 449.02,-133"/>
<text text-anchor="middle" x="422.02" y="-111.3" font-family="Times,serif" font-size="14.00">Call</text>
</g>
<!-- 2&#45;&gt;7 -->
<g id="edge7" class="edge">
<title>2&#45;&gt;7</title>
<path fill="none" stroke="black" d="M422.02,-168.97C422.02,-160.19 422.02,-151.28 422.02,-143.35"/>
<polygon fill="black" stroke="black" points="425.52,-143.22 422.02,-133.22 418.52,-143.22 425.52,-143.22"/>
</g>
<!-- 3 -->
<g id="node4" class="node">
<title>3</title>
<ellipse fill="none" stroke="blue" cx="583.02" cy="-217.08" rx="60.62" ry="26.74"/>
<text text-anchor="middle" x="583.02" y="-220.88" font-family="Times,serif" font-size="14.00">GlobalVar</text>
<text text-anchor="middle" x="583.02" y="-205.88" font-family="Times,serif" font-size="14.00">g1</text>
</g>
<!-- 3&#45;&gt;7 -->
<g id="edge5" class="edge">
<title>3&#45;&gt;7</title>
<path fill="none" stroke="black" d="M551.25,-194.08C539.37,-186.02 525.68,-176.93 513.02,-169 495.25,-157.86 475.12,-146.06 458.33,-136.43"/>
<polygon fill="black" stroke="black" points="459.8,-133.23 449.38,-131.32 456.32,-139.31 459.8,-133.23"/>
</g>
<!-- 4 -->
<g id="node5" class="node">
<title>4</title>
<ellipse fill="none" stroke="blue" cx="425.02" cy="-421.25" rx="60.62" ry="26.74"/>
<text text-anchor="middle" x="425.02" y="-425.05" font-family="Times,serif" font-size="14.00">GlobalVar</text>
<text text-anchor="middle" x="425.02" y="-410.05" font-family="Times,serif" font-size="14.00">g0</text>
</g>
<!-- 4&#45;&gt;5 -->
<g id="edge1" class="edge">
<title>4&#45;&gt;5</title>
<path fill="none" stroke="black" d="M393.25,-398.25C381.37,-390.18 367.68,-381.1 355.02,-373.17 337.25,-362.03 317.12,-350.22 300.33,-340.59"/>
<polygon fill="black" stroke="black" points="301.8,-337.4 291.38,-335.48 298.32,-343.48 301.8,-337.4"/>
</g>
<!-- 6 -->
<g id="node7" class="node">
<title>6</title>
<polygon fill="none" stroke="blue" points="321.52,-236.08 206.52,-236.08 206.52,-198.08 321.52,-198.08 321.52,-236.08"/>
<text text-anchor="middle" x="264.02" y="-220.88" font-family="Times,serif" font-size="14.00">TupleGetItem</text>
<text text-anchor="middle" x="264.02" y="-205.88" font-family="Times,serif" font-size="14.00">idx: 0</text>
</g>
<!-- 5&#45;&gt;6 -->
<g id="edge4" class="edge">
<title>5&#45;&gt;6</title>
<path fill="none" stroke="black" d="M264.02,-300.73C264.02,-285.8 264.02,-264 264.02,-246.54"/>
<polygon fill="black" stroke="black" points="267.52,-246.33 264.02,-236.33 260.52,-246.33 267.52,-246.33"/>
</g>
<!-- 6&#45;&gt;7 -->
<g id="edge6" class="edge">
<title>6&#45;&gt;7</title>
<path fill="none" stroke="black" d="M288.81,-197.91C301.3,-188.94 316.78,-178.13 331.02,-169 348.82,-157.6 369.1,-145.68 385.99,-136.05"/>
<polygon fill="black" stroke="black" points="388.01,-138.92 394.99,-130.95 384.56,-132.84 388.01,-138.92"/>
</g>
<!-- 8 -->
<g id="node9" class="node">
<title>8</title>
<polygon fill="none" stroke="blue" points="843.52,-61 0.52,-61 0.52,-23 843.52,-23 843.52,-61"/>
<text text-anchor="middle" x="422.02" y="-45.8" font-family="Times,serif" font-size="14.00">Func</text>
<text text-anchor="middle" x="422.02" y="-30.8" font-family="Times,serif" font-size="14.00">[Var(x, ty=TensorType([8, 8], float32)), Var(y, ty=TensorType([8, 8], float32)), Var(z, ty=TensorType([8, 8], float32))]</text>
</g>
<!-- 7&#45;&gt;8 -->
<g id="edge8" class="edge">
<title>7&#45;&gt;8</title>
<path fill="none" stroke="black" d="M422.02,-96.81C422.02,-89.11 422.02,-79.82 422.02,-71.15"/>
<polygon fill="black" stroke="black" points="425.52,-71.02 422.02,-61.02 418.52,-71.02 425.52,-71.02"/>
</g>
</g>
</svg>