<?xml version="1.0" encoding="UTF-8" standalone="no"?>
<!DOCTYPE svg PUBLIC "-//W3C//DTD SVG 1.1//EN"
 "http://www.w3.org/Graphics/SVG/1.1/DTD/svg11.dtd">
<!-- Generated by graphviz version 2.43.0 (0)
 -->
<!-- Title: %3 Pages: 1 -->
<svg width="942pt" height="368pt"
 viewBox="0.00 0.00 942.00 368.22" xmlns="http://www.w3.org/2000/svg" xmlns:xlink="http://www.w3.org/1999/xlink">
<g id="graph0" class="graph" transform="scale(1 1) rotate(0) translate(4 364.22)">
<title>%3</title>
<polygon fill="white" stroke="transparent" points="-4,4 -4,-364.22 938,-364.22 938,4 -4,4"/>
<g id="clust1" class="cluster">
<title>cluster_AddFunc</title>
<polygon fill="none" stroke="red" points="8,-88.87 8,-352.22 398,-352.22 398,-88.87 8,-88.87"/>
<text text-anchor="middle" x="203" y="-337.02" font-family="Times,serif" font-size="14.00">AddFunc</text>
</g>
<g id="clust2" class="cluster">
<title>cluster_main</title>
<polygon fill="none" stroke="red" points="406,-8 406,-352.22 926,-352.22 926,-8 406,-8"/>
<text text-anchor="middle" x="666" y="-337.02" font-family="Times,serif" font-size="14.00">main</text>
</g>
<!-- 7 -->
<g id="node1" class="node">
<title>7</title>
<ellipse fill="none" stroke="blue" cx="300" cy="-294.35" rx="89.61" ry="26.74"/>
<text text-anchor="middle" x="300" y="-298.15" font-family="Times,serif" font-size="14.00">AwesomeVar</text>
<text text-anchor="middle" x="300" y="-283.15" font-family="Times,serif" font-size="14.00">name_hint data</text>
</g>
<!-- 10 -->
<g id="node3" class="node">
<title>10</title>
<polygon fill="none" stroke="blue" points="239.5,-222.61 164.5,-222.61 164.5,-186.61 239.5,-186.61 239.5,-222.61"/>
<text text-anchor="middle" x="202" y="-200.91" font-family="Times,serif" font-size="14.00">Call add</text>
</g>
<!-- 7&#45;&gt;10 -->
<g id="edge1" class="edge">
<title>7&#45;&gt;10</title>
<path fill="none" stroke="black" d="M272.44,-268.68C258.81,-256.47 242.42,-241.8 228.89,-229.68"/>
<polygon fill="black" stroke="black" points="231.07,-226.94 221.29,-222.88 226.4,-232.16 231.07,-226.94"/>
</g>
<!-- 8 -->
<g id="node2" class="node">
<title>8</title>
<ellipse fill="none" stroke="blue" cx="104" cy="-294.35" rx="88.28" ry="26.74"/>
<text text-anchor="middle" x="104" y="-298.15" font-family="Times,serif" font-size="14.00">AwesomeVar</text>
<text text-anchor="middle" x="104" y="-283.15" font-family="Times,serif" font-size="14.00">name_hint bias</text>
</g>
<!-- 8&#45;&gt;10 -->
<g id="edge2" class="edge">
<title>8&#45;&gt;10</title>
<path fill="none" stroke="black" d="M131.56,-268.68C145.19,-256.47 161.58,-241.8 175.11,-229.68"/>
<polygon fill="black" stroke="black" points="177.6,-232.16 182.71,-222.88 172.93,-226.94 177.6,-232.16"/>
</g>
<!-- 11 -->
<g id="node4" class="node">
<title>11</title>
<polygon fill="none" stroke="blue" points="230,-132.87 174,-132.87 174,-96.87 230,-96.87 230,-132.87"/>
<text text-anchor="middle" x="202" y="-111.17" font-family="Times,serif" font-size="14.00">Func </text>
</g>
<!-- 10&#45;&gt;11 -->
<g id="edge3" class="edge">
<title>10&#45;&gt;11</title>
<path fill="none" stroke="black" d="M202,-186.28C202,-173.94 202,-157.12 202,-143.01"/>
<polygon fill="black" stroke="black" points="205.5,-142.87 202,-132.87 198.5,-142.87 205.5,-142.87"/>
</g>
<!-- 0 -->
<g id="node5" class="node">
<title>0</title>
<ellipse fill="none" stroke="blue" cx="796" cy="-294.35" rx="76.24" ry="26.74"/>
<text text-anchor="middle" x="796" y="-298.15" font-family="Times,serif" font-size="14.00">AwesomeVar</text>
<text text-anchor="middle" x="796" y="-283.15" font-family="Times,serif" font-size="14.00">name_hint x</text>
</g>
<!-- 4 -->
<g id="node8" class="node">
<title>4</title>
<ellipse fill="none" stroke="blue" cx="751" cy="-204.61" rx="166.75" ry="26.74"/>
<text text-anchor="middle" x="751" y="-208.41" font-family="Times,serif" font-size="14.00">Call GlobalVar</text>
<text text-anchor="middle" x="751" y="-193.41" font-family="Times,serif" font-size="14.00">GlobalVar.name_hint: AddFunc</text>
</g>
<!-- 0&#45;&gt;4 -->
<g id="edge4" class="edge">
<title>0&#45;&gt;4</title>
<path fill="none" stroke="black" d="M782.74,-267.5C778.43,-259.1 773.57,-249.62 768.98,-240.66"/>
<polygon fill="black" stroke="black" points="772,-238.88 764.32,-231.58 765.77,-242.07 772,-238.88"/>
</g>
<!-- 1 -->
<g id="node6" class="node">
<title>1</title>
<ellipse fill="none" stroke="blue" cx="625" cy="-294.35" rx="76.24" ry="26.74"/>
<text text-anchor="middle" x="625" y="-298.15" font-family="Times,serif" font-size="14.00">AwesomeVar</text>
<text text-anchor="middle" x="625" y="-283.15" font-family="Times,serif" font-size="14.00">name_hint y</text>
</g>
<!-- 1&#45;&gt;4 -->
<g id="edge5" class="edge">
<title>1&#45;&gt;4</title>
<path fill="none" stroke="black" d="M658.43,-270.07C673.08,-259.87 690.47,-247.76 706.21,-236.8"/>
<polygon fill="black" stroke="black" points="708.55,-239.44 714.75,-230.85 704.55,-233.69 708.55,-239.44"/>
</g>
<!-- 2 -->
<g id="node7" class="node">
<title>2</title>
<ellipse fill="none" stroke="blue" cx="490" cy="-204.61" rx="76.24" ry="26.74"/>
<text text-anchor="middle" x="490" y="-208.41" font-family="Times,serif" font-size="14.00">AwesomeVar</text>
<text text-anchor="middle" x="490" y="-193.41" font-family="Times,serif" font-size="14.00">name_hint z</text>
</g>
<!-- 5 -->
<g id="node9" class="node">
<title>5</title>
<ellipse fill="none" stroke="blue" cx="666" cy="-114.87" rx="166.75" ry="26.74"/>
<text text-anchor="middle" x="666" y="-118.67" font-family="Times,serif" font-size="14.00">Call GlobalVar</text>
<text text-anchor="middle" x="666" y="-103.67" font-family="Times,serif" font-size="14.00">GlobalVar.name_hint: AddFunc</text>
</g>
<!-- 2&#45;&gt;5 -->
<g id="edge6" class="edge">
<title>2&#45;&gt;5</title>
<path fill="none" stroke="black" d="M533.05,-182.15C555.34,-171.03 582.89,-157.3 607.12,-145.22"/>
<polygon fill="black" stroke="black" points="608.84,-148.28 616.22,-140.68 605.71,-142.01 608.84,-148.28"/>
</g>
<!-- 4&#45;&gt;5 -->
<g id="edge7" class="edge">
<title>4&#45;&gt;5</title>
<path fill="none" stroke="black" d="M725.96,-177.76C717.22,-168.75 707.3,-158.5 698.08,-148.98"/>
<polygon fill="black" stroke="black" points="700.34,-146.28 690.86,-141.54 695.31,-151.15 700.34,-146.28"/>
</g>
<!-- 6 -->
<g id="node10" class="node">
<title>6</title>
<polygon fill="none" stroke="blue" points="694,-52 638,-52 638,-16 694,-16 694,-52"/>
<text text-anchor="middle" x="666" y="-30.3" font-family="Times,serif" font-size="14.00">Func </text>
</g>
<!-- 5&#45;&gt;6 -->
<g id="edge8" class="edge">
<title>5&#45;&gt;6</title>
<path fill="none" stroke="black" d="M666,-87.61C666,-79.51 666,-70.57 666,-62.39"/>
<polygon fill="black" stroke="black" points="669.5,-62.22 666,-52.22 662.5,-62.22 669.5,-62.22"/>
</g>
</g>
</svg>