<?xml version="1.0" encoding="UTF-8" standalone="no"?>
<!DOCTYPE svg PUBLIC "-//W3C//DTD SVG 1.1//EN"
 "http://www.w3.org/Graphics/SVG/1.1/DTD/svg11.dtd">
<!-- Generated by graphviz version 2.43.0 (0)
 -->
<!-- Title: cluster_main Pages: 1 -->
<svg width="506pt" height="320pt"
 viewBox="0.00 0.00 506.18 320.48" xmlns="http://www.w3.org/2000/svg" xmlns:xlink="http://www.w3.org/1999/xlink">
<g id="graph0" class="graph" transform="scale(1 1) rotate(0) translate(4 316.48)">
<title>cluster_main</title>
<polygon fill="white" stroke="transparent" points="-4,4 -4,-316.48 502.18,-316.48 502.18,4 -4,4"/>
<text text-anchor="middle" x="249.09" y="-7.8" font-family="Times,serif" font-size="14.00">main</text>
<!-- 0 -->
<g id="node1" class="node">
<title>0</title>
<ellipse fill="none" stroke="blue" cx="76.37" cy="-285.61" rx="76.24" ry="26.74"/>
<text text-anchor="middle" x="76.37" y="-289.41" font-family="Times,serif" font-size="14.00">Var(Input)</text>
<text text-anchor="middle" x="76.37" y="-274.41" font-family="Times,serif" font-size="14.00">name_hint: x</text>
</g>
<!-- 4 -->
<g id="node5" class="node">
<title>4</title>
<polygon fill="none" stroke="blue" points="256.37,-213.87 202.37,-213.87 202.37,-177.87 256.37,-177.87 256.37,-213.87"/>
<text text-anchor="middle" x="229.37" y="-192.17" font-family="Times,serif" font-size="14.00">Call</text>
</g>
<!-- 0&#45;&gt;4 -->
<g id="edge2" class="edge">
<title>0&#45;&gt;4</title>
<path fill="none" stroke="black" d="M115.37,-262.24C139.29,-248.53 169.7,-231.09 193.1,-217.67"/>
<polygon fill="black" stroke="black" points="195.08,-220.57 202.01,-212.56 191.6,-214.5 195.08,-220.57"/>
</g>
<!-- 1 -->
<g id="node2" class="node">
<title>1</title>
<ellipse fill="none" stroke="blue" cx="247.37" cy="-285.61" rx="76.24" ry="26.74"/>
<text text-anchor="middle" x="247.37" y="-289.41" font-family="Times,serif" font-size="14.00">Var(Input)</text>
<text text-anchor="middle" x="247.37" y="-274.41" font-family="Times,serif" font-size="14.00">name_hint: y</text>
</g>
<!-- 1&#45;&gt;4 -->
<g id="edge3" class="edge">
<title>1&#45;&gt;4</title>
<path fill="none" stroke="black" d="M242.06,-258.76C239.82,-247.8 237.2,-235.03 234.92,-223.95"/>
<polygon fill="black" stroke="black" points="238.31,-223.04 232.87,-213.95 231.45,-224.45 238.31,-223.04"/>
</g>
<!-- 2 -->
<g id="node3" class="node">
<title>2</title>
<ellipse fill="none" stroke="blue" cx="350.37" cy="-195.87" rx="75.82" ry="26.74"/>
<text text-anchor="middle" x="350.37" y="-199.67" font-family="Times,serif" font-size="14.00">Var(Input)</text>
<text text-anchor="middle" x="350.37" y="-184.67" font-family="Times,serif" font-size="14.00">name_hint: z</text>
</g>
<!-- 5 -->
<g id="node6" class="node">
<title>5</title>
<polygon fill="none" stroke="blue" points="377.37,-133 323.37,-133 323.37,-97 377.37,-97 377.37,-133"/>
<text text-anchor="middle" x="350.37" y="-111.3" font-family="Times,serif" font-size="14.00">Call</text>
</g>
<!-- 2&#45;&gt;5 -->
<g id="edge5" class="edge">
<title>2&#45;&gt;5</title>
<path fill="none" stroke="black" d="M350.37,-168.61C350.37,-160.51 350.37,-151.57 350.37,-143.39"/>
<polygon fill="black" stroke="black" points="353.87,-143.22 350.37,-133.22 346.87,-143.22 353.87,-143.22"/>
</g>
<!-- 3 -->
<g id="node4" class="node">
<title>3</title>
<ellipse fill="none" stroke="blue" cx="437.37" cy="-285.61" rx="60.62" ry="26.74"/>
<text text-anchor="middle" x="437.37" y="-289.41" font-family="Times,serif" font-size="14.00">GlobalVar</text>
<text text-anchor="middle" x="437.37" y="-274.41" font-family="Times,serif" font-size="14.00">AddFunc</text>
</g>
<!-- 3&#45;&gt;4 -->
<g id="edge1" class="edge">
<title>3&#45;&gt;4</title>
<path fill="none" stroke="black" d="M386.89,-270.52C351.76,-259.75 304.41,-243.27 265.37,-222.74 263.58,-221.8 261.78,-220.78 259.99,-219.71"/>
<polygon fill="black" stroke="black" points="261.51,-216.52 251.21,-214.02 257.7,-222.4 261.51,-216.52"/>
</g>
<!-- 3&#45;&gt;5 -->
<g id="edge4" class="edge">
<title>3&#45;&gt;5</title>
<path fill="none" stroke="black" d="M443.67,-258.42C448.13,-233.69 450.9,-196.42 435.37,-169 424.79,-150.31 404.64,-137.32 386.61,-128.88"/>
<polygon fill="black" stroke="black" points="388.01,-125.67 377.44,-124.88 385.2,-132.09 388.01,-125.67"/>
</g>
<!-- 4&#45;&gt;5 -->
<g id="edge6" class="edge">
<title>4&#45;&gt;5</title>
<path fill="none" stroke="black" d="M252.84,-177.67C256.98,-174.73 261.28,-171.74 265.37,-169 281.31,-158.32 299.3,-147 314.61,-137.57"/>
<polygon fill="black" stroke="black" points="316.58,-140.47 323.28,-132.26 312.93,-134.5 316.58,-140.47"/>
</g>
<!-- 6 -->
<g id="node7" class="node">
<title>6</title>
<polygon fill="none" stroke="blue" points="436.87,-61 263.87,-61 263.87,-23 436.87,-23 436.87,-61"/>
<text text-anchor="middle" x="350.37" y="-45.8" font-family="Times,serif" font-size="14.00">Func</text>
<text text-anchor="middle" x="350.37" y="-30.8" font-family="Times,serif" font-size="14.00">[Var(x), Var(y), Var(z)]</text>
</g>
<!-- 5&#45;&gt;6 -->
<g id="edge7" class="edge">
<title>5&#45;&gt;6</title>
<path fill="none" stroke="black" d="M350.37,-96.81C350.37,-89.11 350.37,-79.82 350.37,-71.15"/>
<polygon fill="black" stroke="black" points="353.87,-71.02 350.37,-61.02 346.87,-71.02 353.87,-71.02"/>
</g>
</g>
</svg>