<?xml version="1.0" encoding="UTF-8" standalone="no"?>
<!DOCTYPE svg PUBLIC "-//W3C//DTD SVG 1.1//EN"
 "http://www.w3.org/Graphics/SVG/1.1/DTD/svg11.dtd">
<!-- Generated by graphviz version 2.43.0 (0)
 -->
<!-- Title: Schedule Tree Pages: 1 -->
<svg width="858pt" height="344pt"
 viewBox="0.00 0.00 857.50 344.00" xmlns="http://www.w3.org/2000/svg" xmlns:xlink="http://www.w3.org/1999/xlink">
<g id="graph0" class="graph" transform="scale(1 1) rotate(0) translate(4 340)">
<title>Schedule Tree</title>
<polygon fill="white" stroke="transparent" points="-4,4 -4,-340 853.5,-340 853.5,4 -4,4"/>
<g id="clust1" class="cluster">
<title>cluster_legend</title>
<polygon fill="none" stroke="black" points="8,-8 8,-272 152,-272 152,-8 8,-8"/>
<text text-anchor="middle" x="80" y="-15.8" font-family="Times,serif" font-size="14.00">Legend</text>
</g>
<!-- legend -->
<g id="node1" class="node">
<title>legend</title>
<polygon fill="#ffffff" stroke="transparent" points="17,-238.5 17,-263.5 27,-263.5 27,-238.5 17,-238.5"/>
<polygon fill="none" stroke="black" points="17,-238.5 17,-263.5 27,-263.5 27,-238.5 17,-238.5"/>
<polygon fill="white" stroke="transparent" points="27,-238.5 27,-263.5 144,-263.5 144,-238.5 27,-238.5"/>
<polygon fill="none" stroke="black" points="27,-238.5 27,-263.5 144,-263.5 144,-238.5 27,-238.5"/>
<text text-anchor="start" x="52" y="-247.3" font-family="Times,serif" font-size="14.00">kDataPar</text>
<polygon fill="#2980b9" stroke="transparent" points="17,-213.5 17,-238.5 27,-238.5 27,-213.5 17,-213.5"/>
<polygon fill="none" stroke="black" points="17,-213.5 17,-238.5 27,-238.5 27,-213.5 17,-213.5"/>
<polygon fill="white" stroke="transparent" points="27,-213.5 27,-238.5 144,-238.5 144,-213.5 27,-213.5"/>
<polygon fill="none" stroke="black" points="27,-213.5 27,-238.5 144,-238.5 144,-213.5 27,-213.5"/>
<text text-anchor="start" x="36" y="-222.3" font-family="Times,serif" font-size="14.00">kThreadIndex</text>
<polygon fill="#fad7a0" stroke="transparent" points="17,-188.5 17,-213.5 27,-213.5 27,-188.5 17,-188.5"/>
<polygon fill="none" stroke="black" points="17,-188.5 17,-213.5 27,-213.5 27,-188.5 17,-188.5"/>
<polygon fill="white" stroke="transparent" points="27,-188.5 27,-213.5 144,-213.5 144,-188.5 27,-188.5"/>
<polygon fill="none" stroke="black" points="27,-188.5 27,-213.5 144,-213.5 144,-188.5 27,-188.5"/>
<text text-anchor="start" x="32" y="-197.3" font-family="Times,serif" font-size="14.00">kCommReduce</text>
<polygon fill="#d35400" stroke="transparent" points="17,-163.5 17,-188.5 27,-188.5 27,-163.5 17,-163.5"/>
<polygon fill="none" stroke="black" points="17,-163.5 17,-188.5 27,-188.5 27,-163.5 17,-163.5"/>
<polygon fill="white" stroke="transparent" points="27,-163.5 27,-188.5 144,-188.5 144,-163.5 27,-163.5"/>
<polygon fill="none" stroke="black" points="27,-163.5 27,-188.5 144,-188.5 144,-163.5 27,-163.5"/>
<text text-anchor="start" x="51.5" y="-172.3" font-family="Times,serif" font-size="14.00">kOrdered</text>
<polygon fill="#abb2b9" stroke="transparent" points="17,-138.5 17,-163.5 27,-163.5 27,-138.5 17,-138.5"/>
<polygon fill="none" stroke="black" points="17,-138.5 17,-163.5 27,-163.5 27,-138.5 17,-138.5"/>
<polygon fill="white" stroke="transparent" points="27,-138.5 27,-163.5 144,-163.5 144,-138.5 27,-138.5"/>
<polygon fill="none" stroke="black" points="27,-138.5 27,-163.5 144,-163.5 144,-138.5 27,-138.5"/>
<text text-anchor="start" x="53.5" y="-147.3" font-family="Times,serif" font-size="14.00">kOpaque</text>
<polygon fill="#d2b4de" stroke="transparent" points="17,-113.5 17,-138.5 27,-138.5 27,-113.5 17,-113.5"/>
<polygon fill="none" stroke="black" points="17,-113.5 17,-138.5 27,-138.5 27,-113.5 17,-113.5"/>
<polygon fill="white" stroke="transparent" points="27,-113.5 27,-138.5 144,-138.5 144,-113.5 27,-113.5"/>
<polygon fill="none" stroke="black" points="27,-113.5 27,-138.5 144,-138.5 144,-113.5 27,-113.5"/>
<text text-anchor="start" x="50" y="-122.3" font-family="Times,serif" font-size="14.00">kUnrolled</text>
<polygon fill="#aed6f1" stroke="transparent" points="17,-88.5 17,-113.5 27,-113.5 27,-88.5 17,-88.5"/>
<polygon fill="none" stroke="black" points="17,-88.5 17,-113.5 27,-113.5 27,-88.5 17,-88.5"/>
<polygon fill="white" stroke="transparent" points="27,-88.5 27,-113.5 144,-113.5 144,-88.5 27,-88.5"/>
<polygon fill="none" stroke="black" points="27,-88.5 27,-113.5 144,-113.5 144,-88.5 27,-88.5"/>
<text text-anchor="start" x="43.5" y="-97.3" font-family="Times,serif" font-size="14.00">kVectorized</text>
<polygon fill="#f5b7b1" stroke="transparent" points="17,-63.5 17,-88.5 27,-88.5 27,-63.5 17,-63.5"/>
<polygon fill="none" stroke="black" points="17,-63.5 17,-88.5 27,-88.5 27,-63.5 17,-63.5"/>
<polygon fill="white" stroke="transparent" points="27,-63.5 27,-88.5 144,-88.5 144,-63.5 27,-63.5"/>
<polygon fill="none" stroke="black" points="27,-63.5 27,-88.5 144,-88.5 144,-63.5 27,-63.5"/>
<text text-anchor="start" x="39.5" y="-72.3" font-family="Times,serif" font-size="14.00">kParallelized</text>
<polygon fill="#a9dfbf" stroke="transparent" points="17,-38.5 17,-63.5 27,-63.5 27,-38.5 17,-38.5"/>
<polygon fill="none" stroke="black" points="17,-38.5 17,-63.5 27,-63.5 27,-38.5 17,-38.5"/>
<polygon fill="white" stroke="transparent" points="27,-38.5 27,-63.5 144,-63.5 144,-38.5 27,-38.5"/>
<polygon fill="none" stroke="black" points="27,-38.5 27,-63.5 144,-63.5 144,-38.5 27,-38.5"/>
<text text-anchor="start" x="42.5" y="-47.3" font-family="Times,serif" font-size="14.00">kTensorized</text>
</g>
<!-- Stage_0 -->
<g id="node2" class="node">
<title>Stage_0</title>
<polygon fill="lightgrey" stroke="transparent" points="162,-131.5 162,-171.5 224,-171.5 224,-131.5 162,-131.5"/>
<polygon fill="none" stroke="black" points="162,-131.5 162,-171.5 224,-171.5 224,-131.5 162,-131.5"/>
<text text-anchor="start" x="188" y="-155.3" font-family="Times,serif" font-size="14.00">A</text>
<text text-anchor="start" x="167" y="-140.3" font-family="Times,serif" font-size="14.00">Scope: </text>
</g>
<!-- ROOT -->
<g id="node7" class="node">
<title>ROOT</title>
<ellipse fill="none" stroke="black" cx="422" cy="-318" rx="27" ry="18"/>
<text text-anchor="middle" x="422" y="-314.3" font-family="Times,serif" font-size="14.00">ROOT</text>
</g>
<!-- Stage_0&#45;&gt;ROOT -->
<g id="edge1" class="edge">
<title>Stage_0&#45;&gt;ROOT</title>
<path fill="none" stroke="#000000" d="M193.87,-171.7C196.15,-198.21 204.26,-245.72 233,-272 255.03,-292.15 336.96,-305.95 385.42,-312.55"/>
<polygon fill="#000000" stroke="#000000" points="385.13,-316.04 395.51,-313.88 386.05,-309.1 385.13,-316.04"/>
</g>
<!-- Stage_1 -->
<g id="node3" class="node">
<title>Stage_1</title>
<polygon fill="lightgrey" stroke="transparent" points="242,-131.5 242,-171.5 304,-171.5 304,-131.5 242,-131.5"/>
<polygon fill="none" stroke="black" points="242,-131.5 242,-171.5 304,-171.5 304,-131.5 242,-131.5"/>
<text text-anchor="start" x="267.5" y="-155.3" font-family="Times,serif" font-size="14.00">B</text>
<text text-anchor="start" x="247" y="-140.3" font-family="Times,serif" font-size="14.00">Scope: </text>
</g>
<!-- Stage_1&#45;&gt;ROOT -->
<g id="edge2" class="edge">
<title>Stage_1&#45;&gt;ROOT</title>
<path fill="none" stroke="#000000" d="M274.53,-171.53C277.57,-197.41 286.57,-243.7 313,-272 332.23,-292.6 362.29,-304.05 385.97,-310.24"/>
<polygon fill="#000000" stroke="#000000" points="385.47,-313.72 396.01,-312.66 387.11,-306.92 385.47,-313.72"/>
</g>
<!-- Stage_2 -->
<g id="node4" class="node">
<title>Stage_2</title>
<polygon fill="lightgrey" stroke="transparent" points="322,-183.5 322,-223.5 522,-223.5 522,-183.5 322,-183.5"/>
<polygon fill="none" stroke="black" points="322,-183.5 322,-223.5 522,-223.5 522,-183.5 322,-183.5"/>
<text text-anchor="start" x="384" y="-207.3" font-family="Times,serif" font-size="14.00">T_multiply</text>
<text text-anchor="start" x="396" y="-192.3" font-family="Times,serif" font-size="14.00">Scope: </text>
<polygon fill="#ffffff" stroke="transparent" points="322,-143.5 322,-183.5 350,-183.5 350,-143.5 322,-143.5"/>
<polygon fill="none" stroke="black" points="322,-143.5 322,-183.5 350,-183.5 350,-143.5 322,-143.5"/>
<text text-anchor="start" x="331" y="-159.8" font-family="Times,serif" font-size="14.00">0</text>
<polygon fill="white" stroke="transparent" points="350,-143.5 350,-183.5 522,-183.5 522,-143.5 350,-143.5"/>
<polygon fill="none" stroke="black" points="350,-143.5 350,-183.5 522,-183.5 522,-143.5 350,-143.5"/>
<text text-anchor="start" x="361.5" y="-167.3" font-family="Times,serif" font-size="14.00">ax0: int32(kDataPar)</text>
<text text-anchor="start" x="359.5" y="-152.3" font-family="Times,serif" font-size="14.00">range(min=0, ext=2)</text>
<polygon fill="#ffffff" stroke="transparent" points="322,-103.5 322,-143.5 350,-143.5 350,-103.5 322,-103.5"/>
<polygon fill="none" stroke="black" points="322,-103.5 322,-143.5 350,-143.5 350,-103.5 322,-103.5"/>
<text text-anchor="start" x="331" y="-119.8" font-family="Times,serif" font-size="14.00">1</text>
<polygon fill="white" stroke="transparent" points="350,-103.5 350,-143.5 522,-143.5 522,-103.5 350,-103.5"/>
<polygon fill="none" stroke="black" points="350,-103.5 350,-143.5 522,-143.5 522,-103.5 350,-103.5"/>
<text text-anchor="start" x="361.5" y="-127.3" font-family="Times,serif" font-size="14.00">ax1: int32(kDataPar)</text>
<text text-anchor="start" x="359.5" y="-112.3" font-family="Times,serif" font-size="14.00">range(min=0, ext=3)</text>
<polygon fill="none" stroke="black" points="322,-78.5 322,-103.5 522,-103.5 522,-78.5 322,-78.5"/>
<text text-anchor="start" x="327" y="-87.3" font-family="Times,serif" font-size="14.00">[(A[ax0, ax1]*B[ax0, ax1])]</text>
</g>
<!-- Stage_2&#45;&gt;ROOT -->
<g id="edge3" class="edge">
<title>Stage_2&#45;&gt;ROOT</title>
<path fill="none" stroke="#000000" d="M422,-224.17C422,-247.51 422,-272.01 422,-289.97"/>
<polygon fill="#000000" stroke="#000000" points="418.5,-289.99 422,-299.99 425.5,-289.99 418.5,-289.99"/>
</g>
<!-- Stage_3 -->
<g id="node5" class="node">
<title>Stage_3</title>
<polygon fill="lightgrey" stroke="transparent" points="540,-131.5 540,-171.5 602,-171.5 602,-131.5 540,-131.5"/>
<polygon fill="none" stroke="black" points="540,-131.5 540,-171.5 602,-171.5 602,-131.5 540,-131.5"/>
<text text-anchor="start" x="565.5" y="-155.3" font-family="Times,serif" font-size="14.00">C</text>
<text text-anchor="start" x="545" y="-140.3" font-family="Times,serif" font-size="14.00">Scope: </text>
</g>
<!-- Stage_3&#45;&gt;ROOT -->
<g id="edge4" class="edge">
<title>Stage_3&#45;&gt;ROOT</title>
<path fill="none" stroke="#000000" d="M569.47,-171.53C566.43,-197.41 557.43,-243.7 531,-272 511.77,-292.6 481.71,-304.05 458.03,-310.24"/>
<polygon fill="#000000" stroke="#000000" points="456.89,-306.92 447.99,-312.66 458.53,-313.72 456.89,-306.92"/>
</g>
<!-- Stage_4 -->
<g id="node6" class="node">
<title>Stage_4</title>
<polygon fill="lightgrey" stroke="transparent" points="621,-191.5 621,-231.5 850,-231.5 850,-191.5 621,-191.5"/>
<polygon fill="none" stroke="black" points="621,-191.5 621,-231.5 850,-231.5 850,-191.5 621,-191.5"/>
<text text-anchor="start" x="714" y="-215.3" font-family="Times,serif" font-size="14.00">T_add</text>
<text text-anchor="start" x="709.5" y="-200.3" font-family="Times,serif" font-size="14.00">Scope: </text>
<polygon fill="#ffffff" stroke="transparent" points="621,-151.5 621,-191.5 664,-191.5 664,-151.5 621,-151.5"/>
<polygon fill="none" stroke="black" points="621,-151.5 621,-191.5 664,-191.5 664,-151.5 621,-151.5"/>
<text text-anchor="start" x="637.5" y="-167.8" font-family="Times,serif" font-size="14.00">0</text>
<polygon fill="white" stroke="transparent" points="664,-151.5 664,-191.5 850,-191.5 850,-151.5 664,-151.5"/>
<polygon fill="none" stroke="black" points="664,-151.5 664,-191.5 850,-191.5 850,-151.5 664,-151.5"/>
<text text-anchor="start" x="682.5" y="-175.3" font-family="Times,serif" font-size="14.00">ax0: int32(kDataPar)</text>
<text text-anchor="start" x="680.5" y="-160.3" font-family="Times,serif" font-size="14.00">range(min=0, ext=2)</text>
<polygon fill="#ffffff" stroke="transparent" points="621,-111.5 621,-151.5 664,-151.5 664,-111.5 621,-111.5"/>
<polygon fill="none" stroke="black" points="621,-111.5 621,-151.5 664,-151.5 664,-111.5 621,-111.5"/>
<text text-anchor="start" x="637.5" y="-127.8" font-family="Times,serif" font-size="14.00">1</text>
<polygon fill="white" stroke="transparent" points="664,-111.5 664,-151.5 850,-151.5 850,-111.5 664,-111.5"/>
<polygon fill="none" stroke="black" points="664,-111.5 664,-151.5 850,-151.5 850,-111.5 664,-111.5"/>
<text text-anchor="start" x="682.5" y="-135.3" font-family="Times,serif" font-size="14.00">ax1: int32(kDataPar)</text>
<text text-anchor="start" x="680.5" y="-120.3" font-family="Times,serif" font-size="14.00">range(min=0, ext=3)</text>
<polygon fill="none" stroke="black" points="621,-71.5 621,-111.5 850,-111.5 850,-71.5 621,-71.5"/>
<text text-anchor="start" x="626" y="-95.3" font-family="Times,serif" font-size="14.00">[(T_multiply[ax0, ax1] + C[ax0</text>
<text text-anchor="start" x="710" y="-80.3" font-family="Times,serif" font-size="14.00">, ax1])]</text>
</g>
<!-- Stage_4&#45;&gt;ROOT -->
<g id="edge5" class="edge">
<title>Stage_4&#45;&gt;ROOT</title>
<path fill="none" stroke="#000000" d="M665.53,-231.72C648.96,-246.92 630.41,-261.39 611,-272 562.51,-298.51 498.66,-309.52 458.98,-314.01"/>
<polygon fill="#000000" stroke="#000000" points="458.53,-310.54 448.95,-315.07 459.26,-317.5 458.53,-310.54"/>
</g>
</g>
</svg>