<?xml version="1.0" encoding="UTF-8" standalone="no"?>
<!DOCTYPE svg PUBLIC "-//W3C//DTD SVG 1.1//EN"
 "http://www.w3.org/Graphics/SVG/1.1/DTD/svg11.dtd">
<!-- Generated by graphviz version 2.43.0 (0)
 -->
<!-- Title: IterVar Relationship Graph Pages: 1 -->
<svg width="1524pt" height="288pt"
 viewBox="0.00 0.00 1524.00 288.00" xmlns="http://www.w3.org/2000/svg" xmlns:xlink="http://www.w3.org/1999/xlink">
<g id="graph0" class="graph" transform="scale(1 1) rotate(0) translate(4 284)">
<title>IterVar Relationship Graph</title>
<polygon fill="white" stroke="transparent" points="-4,4 -4,-284 1520,-284 1520,4 -4,4"/>
<g id="clust1" class="cluster">
<title>cluster_legend</title>
<polygon fill="none" stroke="black" points="8,-8 8,-272 152,-272 152,-8 8,-8"/>
<text text-anchor="middle" x="80" y="-256.8" font-family="Times,serif" font-size="14.00">Legend</text>
</g>
<g id="clust2" class="cluster">
<title>cluster_Stage_0</title>
<polygon fill="none" stroke="black" points="160,-102.5 160,-177.5 326,-177.5 326,-102.5 160,-102.5"/>
<text text-anchor="middle" x="243" y="-162.3" font-family="Times,serif" font-size="14.00">A</text>
</g>
<g id="clust3" class="cluster">
<title>cluster_Stage_1</title>
<polygon fill="none" stroke="black" points="334,-102.5 334,-177.5 502,-177.5 502,-102.5 334,-102.5"/>
<text text-anchor="middle" x="418" y="-162.3" font-family="Times,serif" font-size="14.00">B</text>
</g>
<g id="clust4" class="cluster">
<title>cluster_Stage_2</title>
<polygon fill="none" stroke="black" points="510,-100.5 510,-179.5 917,-179.5 917,-100.5 510,-100.5"/>
<text text-anchor="middle" x="713.5" y="-164.3" font-family="Times,serif" font-size="14.00">T_multiply</text>
</g>
<g id="clust5" class="cluster">
<title>cluster_Stage_3</title>
<polygon fill="none" stroke="black" points="925,-102.5 925,-177.5 1093,-177.5 1093,-102.5 925,-102.5"/>
<text text-anchor="middle" x="1009" y="-162.3" font-family="Times,serif" font-size="14.00">C</text>
</g>
<g id="clust6" class="cluster">
<title>cluster_Stage_4</title>
<polygon fill="none" stroke="black" points="1101,-100.5 1101,-179.5 1508,-179.5 1508,-100.5 1101,-100.5"/>
<text text-anchor="middle" x="1304.5" y="-164.3" font-family="Times,serif" font-size="14.00">T_add</text>
</g>
<!-- legend -->
<g id="node1" class="node">
<title>legend</title>
<polygon fill="#ffffff" stroke="transparent" points="17,-215.5 17,-240.5 27,-240.5 27,-215.5 17,-215.5"/>
<polygon fill="none" stroke="black" points="17,-215.5 17,-240.5 27,-240.5 27,-215.5 17,-215.5"/>
<polygon fill="white" stroke="transparent" points="27,-215.5 27,-240.5 144,-240.5 144,-215.5 27,-215.5"/>
<polygon fill="none" stroke="black" points="27,-215.5 27,-240.5 144,-240.5 144,-215.5 27,-215.5"/>
<text text-anchor="start" x="52" y="-224.3" font-family="Times,serif" font-size="14.00">kDataPar</text>
<polygon fill="#2980b9" stroke="transparent" points="17,-190.5 17,-215.5 27,-215.5 27,-190.5 17,-190.5"/>
<polygon fill="none" stroke="black" points="17,-190.5 17,-215.5 27,-215.5 27,-190.5 17,-190.5"/>
<polygon fill="white" stroke="transparent" points="27,-190.5 27,-215.5 144,-215.5 144,-190.5 27,-190.5"/>
<polygon fill="none" stroke="black" points="27,-190.5 27,-215.5 144,-215.5 144,-190.5 27,-190.5"/>
<text text-anchor="start" x="36" y="-199.3" font-family="Times,serif" font-size="14.00">kThreadIndex</text>
<polygon fill="#fad7a0" stroke="transparent" points="17,-165.5 17,-190.5 27,-190.5 27,-165.5 17,-165.5"/>
<polygon fill="none" stroke="black" points="17,-165.5 17,-190.5 27,-190.5 27,-165.5 17,-165.5"/>
<polygon fill="white" stroke="transparent" points="27,-165.5 27,-190.5 144,-190.5 144,-165.5 27,-165.5"/>
<polygon fill="none" stroke="black" points="27,-165.5 27,-190.5 144,-190.5 144,-165.5 27,-165.5"/>
<text text-anchor="start" x="32" y="-174.3" font-family="Times,serif" font-size="14.00">kCommReduce</text>
<polygon fill="#d35400" stroke="transparent" points="17,-140.5 17,-165.5 27,-165.5 27,-140.5 17,-140.5"/>
<polygon fill="none" stroke="black" points="17,-140.5 17,-165.5 27,-165.5 27,-140.5 17,-140.5"/>
<polygon fill="white" stroke="transparent" points="27,-140.5 27,-165.5 144,-165.5 144,-140.5 27,-140.5"/>
<polygon fill="none" stroke="black" points="27,-140.5 27,-165.5 144,-165.5 144,-140.5 27,-140.5"/>
<text text-anchor="start" x="51.5" y="-149.3" font-family="Times,serif" font-size="14.00">kOrdered</text>
<polygon fill="#abb2b9" stroke="transparent" points="17,-115.5 17,-140.5 27,-140.5 27,-115.5 17,-115.5"/>
<polygon fill="none" stroke="black" points="17,-115.5 17,-140.5 27,-140.5 27,-115.5 17,-115.5"/>
<polygon fill="white" stroke="transparent" points="27,-115.5 27,-140.5 144,-140.5 144,-115.5 27,-115.5"/>
<polygon fill="none" stroke="black" points="27,-115.5 27,-140.5 144,-140.5 144,-115.5 27,-115.5"/>
<text text-anchor="start" x="53.5" y="-124.3" font-family="Times,serif" font-size="14.00">kOpaque</text>
<polygon fill="#d2b4de" stroke="transparent" points="17,-90.5 17,-115.5 27,-115.5 27,-90.5 17,-90.5"/>
<polygon fill="none" stroke="black" points="17,-90.5 17,-115.5 27,-115.5 27,-90.5 17,-90.5"/>
<polygon fill="white" stroke="transparent" points="27,-90.5 27,-115.5 144,-115.5 144,-90.5 27,-90.5"/>
<polygon fill="none" stroke="black" points="27,-90.5 27,-115.5 144,-115.5 144,-90.5 27,-90.5"/>
<text text-anchor="start" x="50" y="-99.3" font-family="Times,serif" font-size="14.00">kUnrolled</text>
<polygon fill="#aed6f1" stroke="transparent" points="17,-65.5 17,-90.5 27,-90.5 27,-65.5 17,-65.5"/>
<polygon fill="none" stroke="black" points="17,-65.5 17,-90.5 27,-90.5 27,-65.5 17,-65.5"/>
<polygon fill="white" stroke="transparent" points="27,-65.5 27,-90.5 144,-90.5 144,-65.5 27,-65.5"/>
<polygon fill="none" stroke="black" points="27,-65.5 27,-90.5 144,-90.5 144,-65.5 27,-65.5"/>
<text text-anchor="start" x="43.5" y="-74.3" font-family="Times,serif" font-size="14.00">kVectorized</text>
<polygon fill="#f5b7b1" stroke="transparent" points="17,-40.5 17,-65.5 27,-65.5 27,-40.5 17,-40.5"/>
<polygon fill="none" stroke="black" points="17,-40.5 17,-65.5 27,-65.5 27,-40.5 17,-40.5"/>
<polygon fill="white" stroke="transparent" points="27,-40.5 27,-65.5 144,-65.5 144,-40.5 27,-40.5"/>
<polygon fill="none" stroke="black" points="27,-40.5 27,-65.5 144,-65.5 144,-40.5 27,-40.5"/>
<text text-anchor="start" x="39.5" y="-49.3" font-family="Times,serif" font-size="14.00">kParallelized</text>
<polygon fill="#a9dfbf" stroke="transparent" points="17,-15.5 17,-40.5 27,-40.5 27,-15.5 17,-15.5"/>
<polygon fill="none" stroke="black" points="17,-15.5 17,-40.5 27,-40.5 27,-15.5 17,-15.5"/>
<polygon fill="white" stroke="transparent" points="27,-15.5 27,-40.5 144,-40.5 144,-15.5 27,-15.5"/>
<polygon fill="none" stroke="black" points="27,-15.5 27,-40.5 144,-40.5 144,-15.5 27,-15.5"/>
<text text-anchor="start" x="42.5" y="-24.3" font-family="Times,serif" font-size="14.00">kTensorized</text>
</g>
<!-- A_placeholder -->
<!-- B_placeholder -->
<!-- IterVar_2_0 -->
<g id="node4" class="node">
<title>IterVar_2_0</title>
<polygon fill="#ffffff" stroke="transparent" points="723,-108.5 723,-148.5 747,-148.5 747,-108.5 723,-108.5"/>
<polygon fill="none" stroke="black" points="723,-108.5 723,-148.5 747,-148.5 747,-108.5 723,-108.5"/>
<text text-anchor="start" x="728" y="-124.8" font-family="Times,serif" font-size="14.00">&#45;1</text>
<polygon fill="white" stroke="transparent" points="747,-108.5 747,-148.5 910,-148.5 910,-108.5 747,-108.5"/>
<polygon fill="none" stroke="black" points="747,-108.5 747,-148.5 910,-148.5 910,-108.5 747,-108.5"/>
<text text-anchor="start" x="754" y="-132.3" font-family="Times,serif" font-size="14.00">ax0: int32(kDataPar)</text>
<text text-anchor="start" x="752" y="-117.3" font-family="Times,serif" font-size="14.00">range(min=0, ext=2)</text>
</g>
<!-- IterVar_2_1 -->
<g id="node5" class="node">
<title>IterVar_2_1</title>
<polygon fill="#ffffff" stroke="transparent" points="518,-108.5 518,-148.5 542,-148.5 542,-108.5 518,-108.5"/>
<polygon fill="none" stroke="black" points="518,-108.5 518,-148.5 542,-148.5 542,-108.5 518,-108.5"/>
<text text-anchor="start" x="523" y="-124.8" font-family="Times,serif" font-size="14.00">&#45;1</text>
<polygon fill="white" stroke="transparent" points="542,-108.5 542,-148.5 705,-148.5 705,-108.5 542,-108.5"/>
<polygon fill="none" stroke="black" points="542,-108.5 542,-148.5 705,-148.5 705,-108.5 542,-108.5"/>
<text text-anchor="start" x="549" y="-132.3" font-family="Times,serif" font-size="14.00">ax1: int32(kDataPar)</text>
<text text-anchor="start" x="547" y="-117.3" font-family="Times,serif" font-size="14.00">range(min=0, ext=3)</text>
</g>
<!-- C_placeholder -->
<!-- IterVar_4_0 -->
<g id="node7" class="node">
<title>IterVar_4_0</title>
<polygon fill="#ffffff" stroke="transparent" points="1314,-108.5 1314,-148.5 1338,-148.5 1338,-108.5 1314,-108.5"/>
<polygon fill="none" stroke="black" points="1314,-108.5 1314,-148.5 1338,-148.5 1338,-108.5 1314,-108.5"/>
<text text-anchor="start" x="1319" y="-124.8" font-family="Times,serif" font-size="14.00">&#45;1</text>
<polygon fill="white" stroke="transparent" points="1338,-108.5 1338,-148.5 1501,-148.5 1501,-108.5 1338,-108.5"/>
<polygon fill="none" stroke="black" points="1338,-108.5 1338,-148.5 1501,-148.5 1501,-108.5 1338,-108.5"/>
<text text-anchor="start" x="1345" y="-132.3" font-family="Times,serif" font-size="14.00">ax0: int32(kDataPar)</text>
<text text-anchor="start" x="1343" y="-117.3" font-family="Times,serif" font-size="14.00">range(min=0, ext=2)</text>
</g>
<!-- IterVar_4_1 -->
<g id="node8" class="node">
<title>IterVar_4_1</title>
<polygon fill="#ffffff" stroke="transparent" points="1109,-108.5 1109,-148.5 1133,-148.5 1133,-108.5 1109,-108.5"/>
<polygon fill="none" stroke="black" points="1109,-108.5 1109,-148.5 1133,-148.5 1133,-108.5 1109,-108.5"/>
<text text-anchor="start" x="1114" y="-124.8" font-family="Times,serif" font-size="14.00">&#45;1</text>
<polygon fill="white" stroke="transparent" points="1133,-108.5 1133,-148.5 1296,-148.5 1296,-108.5 1133,-108.5"/>
<polygon fill="none" stroke="black" points="1133,-108.5 1133,-148.5 1296,-148.5 1296,-108.5 1133,-108.5"/>
<text text-anchor="start" x="1140" y="-132.3" font-family="Times,serif" font-size="14.00">ax1: int32(kDataPar)</text>
<text text-anchor="start" x="1138" y="-117.3" font-family="Times,serif" font-size="14.00">range(min=0, ext=3)</text>
</g>
</g>
</svg>