<?xml version="1.0" encoding="UTF-8" standalone="no"?>
<!DOCTYPE svg PUBLIC "-//W3C//DTD SVG 1.1//EN"
 "http://www.w3.org/Graphics/SVG/1.1/DTD/svg11.dtd">
<!-- Generated by graphviz version 2.43.0 (0)
 -->
<!-- Title: %3 Pages: 1 -->
<svg width="1240pt" height="379pt"
 viewBox="0.00 0.00 1240.00 379.17" xmlns="http://www.w3.org/2000/svg" xmlns:xlink="http://www.w3.org/1999/xlink">
<g id="graph0" class="graph" transform="scale(1 1) rotate(0) translate(4 375.17)">
<title>%3</title>
<polygon fill="white" stroke="transparent" points="-4,4 -4,-375.17 1236,-375.17 1236,4 -4,4"/>
<g id="clust1" class="cluster">
<title>cluster_g0</title>
<polygon fill="none" stroke="red" points="8,-8 8,-363.17 612,-363.17 612,-8 8,-8"/>
<text text-anchor="middle" x="310" y="-347.97" font-family="Times,serif" font-size="14.00">g0</text>
</g>
<g id="clust2" class="cluster">
<title>cluster_g1</title>
<polygon fill="none" stroke="red" points="620,-82 620,-363.17 1224,-363.17 1224,-82 620,-82"/>
<text text-anchor="middle" x="922" y="-347.97" font-family="Times,serif" font-size="14.00">g1</text>
</g>
<!-- 0 -->
<g id="node1" class="node">
<title>0</title>
<ellipse fill="none" stroke="blue" cx="435" cy="-284.08" rx="82.96" ry="48.17"/>
<text text-anchor="middle" x="435" y="-302.88" font-family="Times,serif" font-size="14.00">Var(Input)</text>
<text text-anchor="middle" x="435" y="-287.88" font-family="Times,serif" font-size="14.00">name_hint: x0</text>
<text text-anchor="middle" x="435" y="-272.88" font-family="Times,serif" font-size="14.00">shape: (8, 8)</text>
<text text-anchor="middle" x="435" y="-257.88" font-family="Times,serif" font-size="14.00">dtype: float32</text>
</g>
<!-- 3 -->
<g id="node4" class="node">
<title>3</title>
<polygon fill="none" stroke="blue" points="434,-200 380,-200 380,-164 434,-164 434,-200"/>
<text text-anchor="middle" x="407" y="-178.3" font-family="Times,serif" font-size="14.00">Call</text>
</g>
<!-- 0&#45;&gt;3 -->
<g id="edge2" class="edge">
<title>0&#45;&gt;3</title>
<path fill="none" stroke="black" d="M421.98,-236.56C419.45,-227.51 416.88,-218.31 414.6,-210.15"/>
<polygon fill="black" stroke="black" points="417.95,-209.14 411.88,-200.45 411.21,-211.03 417.95,-209.14"/>
</g>
<!-- 5 -->
<g id="node6" class="node">
<title>5</title>
<polygon fill="none" stroke="blue" points="307,-200 253,-200 253,-164 307,-164 307,-200"/>
<text text-anchor="middle" x="280" y="-178.3" font-family="Times,serif" font-size="14.00">Call</text>
</g>
<!-- 0&#45;&gt;5 -->
<g id="edge5" class="edge">
<title>0&#45;&gt;5</title>
<path fill="none" stroke="black" d="M380.35,-247.8C358.58,-233.74 334.18,-217.98 314.88,-205.52"/>
<polygon fill="black" stroke="black" points="316.7,-202.53 306.4,-200.05 312.91,-208.41 316.7,-202.53"/>
</g>
<!-- 1 -->
<g id="node2" class="node">
<title>1</title>
<ellipse fill="none" stroke="blue" cx="252" cy="-284.08" rx="82.96" ry="48.17"/>
<text text-anchor="middle" x="252" y="-302.88" font-family="Times,serif" font-size="14.00">Var(Input)</text>
<text text-anchor="middle" x="252" y="-287.88" font-family="Times,serif" font-size="14.00">name_hint: y0</text>
<text text-anchor="middle" x="252" y="-272.88" font-family="Times,serif" font-size="14.00">shape: (8, 8)</text>
<text text-anchor="middle" x="252" y="-257.88" font-family="Times,serif" font-size="14.00">dtype: float32</text>
</g>
<!-- 1&#45;&gt;3 -->
<g id="edge3" class="edge">
<title>1&#45;&gt;3</title>
<path fill="none" stroke="black" d="M306.65,-247.8C328.42,-233.74 352.82,-217.98 372.12,-205.52"/>
<polygon fill="black" stroke="black" points="374.09,-208.41 380.6,-200.05 370.3,-202.53 374.09,-208.41"/>
</g>
<!-- 1&#45;&gt;5 -->
<g id="edge6" class="edge">
<title>1&#45;&gt;5</title>
<path fill="none" stroke="black" d="M265.02,-236.56C267.55,-227.51 270.12,-218.31 272.4,-210.15"/>
<polygon fill="black" stroke="black" points="275.79,-211.03 275.12,-200.45 269.05,-209.14 275.79,-211.03"/>
</g>
<!-- 2 -->
<g id="node3" class="node">
<title>2</title>
<polygon fill="none" stroke="blue" points="590,-302.08 536,-302.08 536,-266.08 590,-266.08 590,-302.08"/>
<text text-anchor="middle" x="563" y="-280.38" font-family="Times,serif" font-size="14.00">add</text>
</g>
<!-- 2&#45;&gt;3 -->
<g id="edge1" class="edge">
<title>2&#45;&gt;3</title>
<path fill="none" stroke="black" d="M552.76,-265.65C546.35,-255.92 537.35,-244.15 527,-236 502.2,-216.47 469.08,-202.55 443.92,-193.9"/>
<polygon fill="black" stroke="black" points="444.95,-190.55 434.35,-190.72 442.74,-197.19 444.95,-190.55"/>
</g>
<!-- 6 -->
<g id="node7" class="node">
<title>6</title>
<polygon fill="none" stroke="blue" points="338,-127 282,-127 282,-91 338,-91 338,-127"/>
<text text-anchor="middle" x="310" y="-105.3" font-family="Times,serif" font-size="14.00">Tuple</text>
</g>
<!-- 3&#45;&gt;6 -->
<g id="edge7" class="edge">
<title>3&#45;&gt;6</title>
<path fill="none" stroke="black" d="M383.52,-163.81C370.89,-154.57 355.14,-143.04 341.47,-133.03"/>
<polygon fill="black" stroke="black" points="343.4,-130.11 333.26,-127.03 339.27,-135.76 343.4,-130.11"/>
</g>
<!-- 4 -->
<g id="node5" class="node">
<title>4</title>
<polygon fill="none" stroke="blue" points="151.5,-302.08 74.5,-302.08 74.5,-266.08 151.5,-266.08 151.5,-302.08"/>
<text text-anchor="middle" x="113" y="-280.38" font-family="Times,serif" font-size="14.00">subtract</text>
</g>
<!-- 4&#45;&gt;5 -->
<g id="edge4" class="edge">
<title>4&#45;&gt;5</title>
<path fill="none" stroke="black" d="M127.36,-265.81C136.06,-256.13 147.81,-244.36 160,-236 185.75,-218.34 218.34,-204.39 243.06,-195.25"/>
<polygon fill="black" stroke="black" points="244.56,-198.43 252.79,-191.75 242.19,-191.84 244.56,-198.43"/>
</g>
<!-- 5&#45;&gt;6 -->
<g id="edge8" class="edge">
<title>5&#45;&gt;6</title>
<path fill="none" stroke="black" d="M287.26,-163.81C290.73,-155.62 294.95,-145.62 298.81,-136.48"/>
<polygon fill="black" stroke="black" points="302.14,-137.6 302.8,-127.03 295.69,-134.88 302.14,-137.6"/>
</g>
<!-- 7 -->
<g id="node8" class="node">
<title>7</title>
<polygon fill="none" stroke="blue" points="604,-54 16,-54 16,-16 604,-16 604,-54"/>
<text text-anchor="middle" x="310" y="-38.8" font-family="Times,serif" font-size="14.00">Func</text>
<text text-anchor="middle" x="310" y="-23.8" font-family="Times,serif" font-size="14.00">[Var(x0, ty=TensorType([8, 8], float32)), Var(y0, ty=TensorType([8, 8], float32))]</text>
</g>
<!-- 6&#45;&gt;7 -->
<g id="edge9" class="edge">
<title>6&#45;&gt;7</title>
<path fill="none" stroke="black" d="M310,-90.94C310,-82.99 310,-73.31 310,-64.31"/>
<polygon fill="black" stroke="black" points="313.5,-64.2 310,-54.2 306.5,-64.2 313.5,-64.2"/>
</g>
<!-- 8 -->
<g id="node9" class="node">
<title>8</title>
<ellipse fill="none" stroke="blue" cx="783" cy="-284.08" rx="82.96" ry="48.17"/>
<text text-anchor="middle" x="783" y="-302.88" font-family="Times,serif" font-size="14.00">Var(Input)</text>
<text text-anchor="middle" x="783" y="-287.88" font-family="Times,serif" font-size="14.00">name_hint: x1</text>
<text text-anchor="middle" x="783" y="-272.88" font-family="Times,serif" font-size="14.00">shape: (8, 8)</text>
<text text-anchor="middle" x="783" y="-257.88" font-family="Times,serif" font-size="14.00">dtype: float32</text>
</g>
<!-- 11 -->
<g id="node12" class="node">
<title>11</title>
<polygon fill="none" stroke="blue" points="949,-200 895,-200 895,-164 949,-164 949,-200"/>
<text text-anchor="middle" x="922" y="-178.3" font-family="Times,serif" font-size="14.00">Call</text>
</g>
<!-- 8&#45;&gt;11 -->
<g id="edge11" class="edge">
<title>8&#45;&gt;11</title>
<path fill="none" stroke="black" d="M834.36,-246.1C852.94,-232.73 873.36,-218.02 889.82,-206.17"/>
<polygon fill="black" stroke="black" points="891.97,-208.94 898.04,-200.25 887.88,-203.26 891.97,-208.94"/>
</g>
<!-- 9 -->
<g id="node10" class="node">
<title>9</title>
<ellipse fill="none" stroke="blue" cx="1061" cy="-284.08" rx="82.96" ry="48.17"/>
<text text-anchor="middle" x="1061" y="-302.88" font-family="Times,serif" font-size="14.00">Var(Input)</text>
<text text-anchor="middle" x="1061" y="-287.88" font-family="Times,serif" font-size="14.00">name_hint: y1</text>
<text text-anchor="middle" x="1061" y="-272.88" font-family="Times,serif" font-size="14.00">shape: (8, 8)</text>
<text text-anchor="middle" x="1061" y="-257.88" font-family="Times,serif" font-size="14.00">dtype: float32</text>
</g>
<!-- 9&#45;&gt;11 -->
<g id="edge12" class="edge">
<title>9&#45;&gt;11</title>
<path fill="none" stroke="black" d="M1009.64,-246.1C991.06,-232.73 970.64,-218.02 954.18,-206.17"/>
<polygon fill="black" stroke="black" points="956.12,-203.26 945.96,-200.25 952.03,-208.94 956.12,-203.26"/>
</g>
<!-- 10 -->
<g id="node11" class="node">
<title>10</title>
<polygon fill="none" stroke="blue" points="960.5,-302.08 883.5,-302.08 883.5,-266.08 960.5,-266.08 960.5,-302.08"/>
<text text-anchor="middle" x="922" y="-280.38" font-family="Times,serif" font-size="14.00">subtract</text>
</g>
<!-- 10&#45;&gt;11 -->
<g id="edge10" class="edge">
<title>10&#45;&gt;11</title>
<path fill="none" stroke="black" d="M922,-265.65C922,-250.44 922,-228.1 922,-210.49"/>
<polygon fill="black" stroke="black" points="925.5,-210.23 922,-200.23 918.5,-210.23 925.5,-210.23"/>
</g>
<!-- 12 -->
<g id="node13" class="node">
<title>12</title>
<polygon fill="none" stroke="blue" points="1216,-128 628,-128 628,-90 1216,-90 1216,-128"/>
<text text-anchor="middle" x="922" y="-112.8" font-family="Times,serif" font-size="14.00">Func</text>
<text text-anchor="middle" x="922" y="-97.8" font-family="Times,serif" font-size="14.00">[Var(x1, ty=TensorType([8, 8], float32)), Var(y1, ty=TensorType([8, 8], float32))]</text>
</g>
<!-- 11&#45;&gt;12 -->
<g id="edge13" class="edge">
<title>11&#45;&gt;12</title>
<path fill="none" stroke="black" d="M922,-163.81C922,-156.11 922,-146.82 922,-138.15"/>
<polygon fill="black" stroke="black" points="925.5,-138.02 922,-128.02 918.5,-138.02 925.5,-138.02"/>
</g>
</g>
</svg>