<?xml version="1.0" encoding="UTF-8" standalone="no"?>
<!DOCTYPE svg PUBLIC "-//W3C//DTD SVG 1.1//EN"
 "http://www.w3.org/Graphics/SVG/1.1/DTD/svg11.dtd">
<!-- Generated by graphviz version 2.43.0 (0)
 -->
<!-- Title: Dataflow Graph Pages: 1 -->
<svg width="720pt" height="142pt"
 viewBox="0.00 0.00 720.13 142.21" xmlns="http://www.w3.org/2000/svg" xmlns:xlink="http://www.w3.org/1999/xlink">
<g id="graph0" class="graph" transform="scale(1 1) rotate(0) translate(4 138.21)">
<title>Dataflow Graph</title>
<polygon fill="white" stroke="transparent" points="-4,4 -4,-138.21 716.13,-138.21 716.13,4 -4,4"/>
<!-- Stage_0 -->
<g id="node1" class="node">
<title>Stage_0</title>
<polygon fill="white" stroke="transparent" points="0,-93 0,-133 10,-133 10,-93 0,-93"/>
<polygon fill="none" stroke="black" points="0,-93 0,-133 10,-133 10,-93 0,-93"/>
<polygon fill="white" stroke="transparent" points="10,-93 10,-133 72,-133 72,-93 10,-93"/>
<polygon fill="none" stroke="black" points="10,-93 10,-133 72,-133 72,-93 10,-93"/>
<text text-anchor="start" x="36" y="-116.8" font-family="Times,serif" font-size="14.00">A</text>
<text text-anchor="start" x="15" y="-101.8" font-family="Times,serif" font-size="14.00">Scope: </text>
<polygon fill="lightgrey" stroke="transparent" points="72,-93 72,-133 92,-133 92,-93 72,-93"/>
<polygon fill="none" stroke="black" points="72,-93 72,-133 92,-133 92,-93 72,-93"/>
<text text-anchor="start" x="77" y="-109.3" font-family="Times,serif" font-size="14.00">0</text>
</g>
<!-- Tensor_0_0 -->
<g id="node2" class="node">
<title>Tensor_0_0</title>
<ellipse fill="none" stroke="black" cx="163.36" cy="-113" rx="35.21" ry="21.43"/>
<text text-anchor="middle" x="163.36" y="-116.8" font-family="Times,serif" font-size="14.00">[2, 3]</text>
<text text-anchor="middle" x="163.36" y="-101.8" font-family="Times,serif" font-size="14.00">float32</text>
</g>
<!-- Stage_0&#45;&gt;Tensor_0_0 -->
<g id="edge1" class="edge">
<title>Stage_0:O_0&#45;&gt;Tensor_0_0</title>
<path fill="none" stroke="black" d="M92,-113C100.25,-113 109.04,-113 117.52,-113"/>
<polygon fill="black" stroke="black" points="117.64,-116.5 127.64,-113 117.64,-109.5 117.64,-116.5"/>
</g>
<!-- Stage_2 -->
<g id="node5" class="node">
<title>Stage_2</title>
<polygon fill="lightgrey" stroke="transparent" points="234.71,-83 234.71,-108 254.71,-108 254.71,-83 234.71,-83"/>
<polygon fill="none" stroke="black" points="234.71,-83 234.71,-108 254.71,-108 254.71,-83 234.71,-83"/>
<text text-anchor="start" x="239.71" y="-91.8" font-family="Times,serif" font-size="14.00">0</text>
<polygon fill="white" stroke="transparent" points="254.71,-58 254.71,-108 340.71,-108 340.71,-58 254.71,-58"/>
<polygon fill="none" stroke="black" points="254.71,-58 254.71,-108 340.71,-108 340.71,-58 254.71,-58"/>
<text text-anchor="start" x="259.71" y="-86.8" font-family="Times,serif" font-size="14.00">T_multiply</text>
<text text-anchor="start" x="271.71" y="-71.8" font-family="Times,serif" font-size="14.00">Scope: </text>
<polygon fill="lightgrey" stroke="transparent" points="340.71,-83 340.71,-108 360.71,-108 360.71,-83 340.71,-83"/>
<polygon fill="none" stroke="black" points="340.71,-83 340.71,-108 360.71,-108 360.71,-83 340.71,-83"/>
<text text-anchor="start" x="345.71" y="-91.8" font-family="Times,serif" font-size="14.00">0</text>
<polygon fill="lightgrey" stroke="transparent" points="234.71,-58 234.71,-83 254.71,-83 254.71,-58 234.71,-58"/>
<polygon fill="none" stroke="black" points="234.71,-58 234.71,-83 254.71,-83 254.71,-58 234.71,-58"/>
<text text-anchor="start" x="239.71" y="-66.8" font-family="Times,serif" font-size="14.00">1</text>
<polygon fill="white" stroke="transparent" points="340.71,-58 340.71,-83 360.71,-83 360.71,-58 340.71,-58"/>
<polygon fill="none" stroke="black" points="340.71,-58 340.71,-83 360.71,-83 360.71,-58 340.71,-58"/>
</g>
<!-- Tensor_0_0&#45;&gt;Stage_2 -->
<g id="edge3" class="edge">
<title>Tensor_0_0&#45;&gt;Stage_2:I_0</title>
<path fill="none" stroke="black" d="M194.1,-102.52C203.5,-99.87 214.18,-97.49 224.71,-96.5"/>
<polygon fill="black" stroke="black" points="224.9,-99.99 234.71,-96 224.55,-93 224.9,-99.99"/>
</g>
<!-- Stage_1 -->
<g id="node3" class="node">
<title>Stage_1</title>
<polygon fill="white" stroke="transparent" points="0,-33 0,-73 10,-73 10,-33 0,-33"/>
<polygon fill="none" stroke="black" points="0,-33 0,-73 10,-73 10,-33 0,-33"/>
<polygon fill="white" stroke="transparent" points="10,-33 10,-73 72,-73 72,-33 10,-33"/>
<polygon fill="none" stroke="black" points="10,-33 10,-73 72,-73 72,-33 10,-33"/>
<text text-anchor="start" x="35.5" y="-56.8" font-family="Times,serif" font-size="14.00">B</text>
<text text-anchor="start" x="15" y="-41.8" font-family="Times,serif" font-size="14.00">Scope: </text>
<polygon fill="lightgrey" stroke="transparent" points="72,-33 72,-73 92,-73 92,-33 72,-33"/>
<polygon fill="none" stroke="black" points="72,-33 72,-73 92,-73 92,-33 72,-33"/>
<text text-anchor="start" x="77" y="-49.3" font-family="Times,serif" font-size="14.00">0</text>
</g>
<!-- Tensor_1_0 -->
<g id="node4" class="node">
<title>Tensor_1_0</title>
<ellipse fill="none" stroke="black" cx="163.36" cy="-53" rx="35.21" ry="21.43"/>
<text text-anchor="middle" x="163.36" y="-56.8" font-family="Times,serif" font-size="14.00">[2, 3]</text>
<text text-anchor="middle" x="163.36" y="-41.8" font-family="Times,serif" font-size="14.00">float32</text>
</g>
<!-- Stage_1&#45;&gt;Tensor_1_0 -->
<g id="edge2" class="edge">
<title>Stage_1:O_0&#45;&gt;Tensor_1_0</title>
<path fill="none" stroke="black" d="M92,-53C100.25,-53 109.04,-53 117.52,-53"/>
<polygon fill="black" stroke="black" points="117.64,-56.5 127.64,-53 117.64,-49.5 117.64,-56.5"/>
</g>
<!-- Tensor_1_0&#45;&gt;Stage_2 -->
<g id="edge4" class="edge">
<title>Tensor_1_0&#45;&gt;Stage_2:I_1</title>
<path fill="none" stroke="black" d="M194.1,-63.48C203.5,-66.13 214.18,-68.51 224.71,-69.5"/>
<polygon fill="black" stroke="black" points="224.55,-73 234.71,-70 224.9,-66.01 224.55,-73"/>
</g>
<!-- Tensor_2_0 -->
<g id="node6" class="node">
<title>Tensor_2_0</title>
<ellipse fill="none" stroke="black" cx="432.07" cy="-92" rx="35.21" ry="21.43"/>
<text text-anchor="middle" x="432.07" y="-95.8" font-family="Times,serif" font-size="14.00">[2, 3]</text>
<text text-anchor="middle" x="432.07" y="-80.8" font-family="Times,serif" font-size="14.00">float32</text>
</g>
<!-- Stage_2&#45;&gt;Tensor_2_0 -->
<g id="edge5" class="edge">
<title>Stage_2:O_0&#45;&gt;Tensor_2_0</title>
<path fill="none" stroke="black" d="M360.71,-96C369.06,-96 377.96,-95.72 386.52,-95.3"/>
<polygon fill="black" stroke="black" points="386.94,-98.78 396.74,-94.73 386.56,-91.79 386.94,-98.78"/>
</g>
<!-- Stage_4 -->
<g id="node9" class="node">
<title>Stage_4</title>
<polygon fill="lightgrey" stroke="transparent" points="503.42,-60 503.42,-85 523.42,-85 523.42,-60 503.42,-60"/>
<polygon fill="none" stroke="black" points="503.42,-60 503.42,-85 523.42,-85 523.42,-60 503.42,-60"/>
<text text-anchor="start" x="508.42" y="-68.8" font-family="Times,serif" font-size="14.00">0</text>
<polygon fill="white" stroke="transparent" points="523.42,-35 523.42,-85 585.42,-85 585.42,-35 523.42,-35"/>
<polygon fill="none" stroke="black" points="523.42,-35 523.42,-85 585.42,-85 585.42,-35 523.42,-35"/>
<text text-anchor="start" x="532.92" y="-63.8" font-family="Times,serif" font-size="14.00">T_add</text>
<text text-anchor="start" x="528.42" y="-48.8" font-family="Times,serif" font-size="14.00">Scope: </text>
<polygon fill="lightgrey" stroke="transparent" points="585.42,-60 585.42,-85 605.42,-85 605.42,-60 585.42,-60"/>
<polygon fill="none" stroke="black" points="585.42,-60 585.42,-85 605.42,-85 605.42,-60 585.42,-60"/>
<text text-anchor="start" x="590.42" y="-68.8" font-family="Times,serif" font-size="14.00">0</text>
<polygon fill="lightgrey" stroke="transparent" points="503.42,-35 503.42,-60 523.42,-60 523.42,-35 503.42,-35"/>
<polygon fill="none" stroke="black" points="503.42,-35 503.42,-60 523.42,-60 523.42,-35 503.42,-35"/>
<text text-anchor="start" x="508.42" y="-43.8" font-family="Times,serif" font-size="14.00">1</text>
<polygon fill="white" stroke="transparent" points="585.42,-35 585.42,-60 605.42,-60 605.42,-35 585.42,-35"/>
<polygon fill="none" stroke="black" points="585.42,-35 585.42,-60 605.42,-60 605.42,-35 585.42,-35"/>
</g>
<!-- Tensor_2_0&#45;&gt;Stage_4 -->
<g id="edge7" class="edge">
<title>Tensor_2_0&#45;&gt;Stage_4:I_0</title>
<path fill="none" stroke="black" d="M462.04,-80.51C471.52,-77.48 482.41,-74.73 493.18,-73.57"/>
<polygon fill="black" stroke="black" points="493.63,-77.05 503.42,-73 493.24,-70.07 493.63,-77.05"/>
</g>
<!-- Stage_3 -->
<g id="node7" class="node">
<title>Stage_3</title>
<polygon fill="white" stroke="transparent" points="251.71,0 251.71,-40 261.71,-40 261.71,0 251.71,0"/>
<polygon fill="none" stroke="black" points="251.71,0 251.71,-40 261.71,-40 261.71,0 251.71,0"/>
<polygon fill="white" stroke="transparent" points="261.71,0 261.71,-40 323.71,-40 323.71,0 261.71,0"/>
<polygon fill="none" stroke="black" points="261.71,0 261.71,-40 323.71,-40 323.71,0 261.71,0"/>
<text text-anchor="start" x="287.21" y="-23.8" font-family="Times,serif" font-size="14.00">C</text>
<text text-anchor="start" x="266.71" y="-8.8" font-family="Times,serif" font-size="14.00">Scope: </text>
<polygon fill="lightgrey" stroke="transparent" points="323.71,0 323.71,-40 343.71,-40 343.71,0 323.71,0"/>
<polygon fill="none" stroke="black" points="323.71,0 323.71,-40 343.71,-40 343.71,0 323.71,0"/>
<text text-anchor="start" x="328.71" y="-16.3" font-family="Times,serif" font-size="14.00">0</text>
</g>
<!-- Tensor_3_0 -->
<g id="node8" class="node">
<title>Tensor_3_0</title>
<ellipse fill="none" stroke="black" cx="432.07" cy="-28" rx="35.21" ry="21.43"/>
<text text-anchor="middle" x="432.07" y="-31.8" font-family="Times,serif" font-size="14.00">[2, 3]</text>
<text text-anchor="middle" x="432.07" y="-16.8" font-family="Times,serif" font-size="14.00">float32</text>
</g>
<!-- Stage_3&#45;&gt;Tensor_3_0 -->
<g id="edge6" class="edge">
<title>Stage_3:O_0&#45;&gt;Tensor_3_0</title>
<path fill="none" stroke="black" d="M344.71,-20C358.63,-20 373.75,-21.04 387.4,-22.38"/>
<polygon fill="black" stroke="black" points="387.19,-25.87 397.5,-23.44 387.93,-18.91 387.19,-25.87"/>
</g>
<!-- Tensor_3_0&#45;&gt;Stage_4 -->
<g id="edge8" class="edge">
<title>Tensor_3_0&#45;&gt;Stage_4:I_1</title>
<path fill="none" stroke="black" d="M462.04,-39.49C471.52,-42.52 482.41,-45.27 493.18,-46.43"/>
<polygon fill="black" stroke="black" points="493.24,-49.93 503.42,-47 493.63,-42.95 493.24,-49.93"/>
</g>
<!-- Tensor_4_0 -->
<g id="node10" class="node">
<title>Tensor_4_0</title>
<ellipse fill="none" stroke="black" cx="676.78" cy="-73" rx="35.21" ry="21.43"/>
<text text-anchor="middle" x="676.78" y="-76.8" font-family="Times,serif" font-size="14.00">[2, 3]</text>
<text text-anchor="middle" x="676.78" y="-61.8" font-family="Times,serif" font-size="14.00">float32</text>
</g>
<!-- Stage_4&#45;&gt;Tensor_4_0 -->
<g id="edge9" class="edge">
<title>Stage_4:O_0&#45;&gt;Tensor_4_0</title>
<path fill="none" stroke="black" d="M605.42,-73C613.67,-73 622.46,-73 630.94,-73"/>
<polygon fill="black" stroke="black" points="631.07,-76.5 641.07,-73 631.07,-69.5 631.07,-76.5"/>
</g>
</g>
</svg>