<?xml version="1.0" encoding="UTF-8" standalone="no"?>
<!DOCTYPE svg PUBLIC "-//W3C//DTD SVG 1.1//EN"
 "http://www.w3.org/Graphics/SVG/1.1/DTD/svg11.dtd">
<!-- Generated by graphviz version 2.43.0 (0)
 -->
<!-- Title: cluster_main Pages: 1 -->
<svg width="542pt" height="849pt"
 viewBox="0.00 0.00 541.50 849.17" xmlns="http://www.w3.org/2000/svg" xmlns:xlink="http://www.w3.org/1999/xlink">
<g id="graph0" class="graph" transform="scale(1 1) rotate(0) translate(4 845.17)">
<title>cluster_main</title>
<polygon fill="white" stroke="transparent" points="-4,4 -4,-845.17 537.5,-845.17 537.5,4 -4,4"/>
<text text-anchor="middle" x="266.75" y="-7.8" font-family="Times,serif" font-size="14.00">main</text>
<!-- 0 -->
<g id="node1" class="node">
<title>0</title>
<ellipse fill="none" stroke="blue" cx="216.5" cy="-793.08" rx="92.76" ry="48.17"/>
<text text-anchor="middle" x="216.5" y="-811.88" font-family="Times,serif" font-size="14.00">Var(Input)</text>
<text text-anchor="middle" x="216.5" y="-796.88" font-family="Times,serif" font-size="14.00">name_hint: data</text>
<text text-anchor="middle" x="216.5" y="-781.88" font-family="Times,serif" font-size="14.00">shape: (10, 10)</text>
<text text-anchor="middle" x="216.5" y="-766.88" font-family="Times,serif" font-size="14.00">dtype: float32</text>
</g>
<!-- 6 -->
<g id="node7" class="node">
<title>6</title>
<polygon fill="none" stroke="blue" points="310.5,-709 256.5,-709 256.5,-673 310.5,-673 310.5,-709"/>
<text text-anchor="middle" x="283.5" y="-687.3" font-family="Times,serif" font-size="14.00">Call</text>
</g>
<!-- 0&#45;&gt;6 -->
<g id="edge2" class="edge">
<title>0&#45;&gt;6</title>
<path fill="none" stroke="black" d="M246.47,-747.31C253.27,-737.16 260.26,-726.72 266.31,-717.68"/>
<polygon fill="black" stroke="black" points="269.35,-719.43 272,-709.17 263.53,-715.54 269.35,-719.43"/>
</g>
<!-- 1 -->
<g id="node2" class="node">
<title>1</title>
<polygon fill="none" stroke="blue" points="310,-637 117,-637 117,-601 310,-601 310,-637"/>
<text text-anchor="middle" x="213.5" y="-615.3" font-family="Times,serif" font-size="14.00">annotation.compiler_end</text>
</g>
<!-- 8 -->
<g id="node9" class="node">
<title>8</title>
<polygon fill="none" stroke="blue" points="218.5,-565 164.5,-565 164.5,-529 218.5,-529 218.5,-565"/>
<text text-anchor="middle" x="191.5" y="-543.3" font-family="Times,serif" font-size="14.00">Call</text>
</g>
<!-- 1&#45;&gt;8 -->
<g id="edge5" class="edge">
<title>1&#45;&gt;8</title>
<path fill="none" stroke="black" d="M208.06,-600.7C205.61,-592.9 202.66,-583.51 199.93,-574.83"/>
<polygon fill="black" stroke="black" points="203.21,-573.59 196.88,-565.1 196.54,-575.69 203.21,-573.59"/>
</g>
<!-- 11 -->
<g id="node12" class="node">
<title>11</title>
<polygon fill="none" stroke="blue" points="265.5,-349 211.5,-349 211.5,-313 265.5,-313 265.5,-349"/>
<text text-anchor="middle" x="238.5" y="-327.3" font-family="Times,serif" font-size="14.00">Call</text>
</g>
<!-- 1&#45;&gt;11 -->
<g id="edge11" class="edge">
<title>1&#45;&gt;11</title>
<path fill="none" stroke="black" d="M219.11,-600.53C222.15,-590.29 225.65,-577.04 227.5,-565 238.86,-491.2 239.56,-402.85 239.07,-359.18"/>
<polygon fill="black" stroke="black" points="242.56,-359.03 238.92,-349.08 235.56,-359.13 242.56,-359.03"/>
</g>
<!-- 14 -->
<g id="node15" class="node">
<title>14</title>
<polygon fill="none" stroke="blue" points="382.5,-565 328.5,-565 328.5,-529 382.5,-529 382.5,-565"/>
<text text-anchor="middle" x="355.5" y="-543.3" font-family="Times,serif" font-size="14.00">Call</text>
</g>
<!-- 1&#45;&gt;14 -->
<g id="edge15" class="edge">
<title>1&#45;&gt;14</title>
<path fill="none" stroke="black" d="M248.24,-600.88C269.69,-590.3 297.19,-576.74 318.97,-566.01"/>
<polygon fill="black" stroke="black" points="320.81,-569 328.23,-561.44 317.71,-562.73 320.81,-569"/>
</g>
<!-- 17 -->
<g id="node18" class="node">
<title>17</title>
<polygon fill="none" stroke="blue" points="383.5,-349 329.5,-349 329.5,-313 383.5,-313 383.5,-349"/>
<text text-anchor="middle" x="356.5" y="-327.3" font-family="Times,serif" font-size="14.00">Call</text>
</g>
<!-- 1&#45;&gt;17 -->
<g id="edge21" class="edge">
<title>1&#45;&gt;17</title>
<path fill="none" stroke="black" d="M224.2,-600.54C230.34,-590.3 238.09,-577.05 244.5,-565 283.59,-491.47 324.85,-402.13 344.6,-358.52"/>
<polygon fill="black" stroke="black" points="347.89,-359.75 348.82,-349.19 341.51,-356.87 347.89,-359.75"/>
</g>
<!-- 20 -->
<g id="node21" class="node">
<title>20</title>
<polygon fill="none" stroke="blue" points="194.5,-133 140.5,-133 140.5,-97 194.5,-97 194.5,-133"/>
<text text-anchor="middle" x="167.5" y="-111.3" font-family="Times,serif" font-size="14.00">Call</text>
</g>
<!-- 1&#45;&gt;20 -->
<g id="edge28" class="edge">
<title>1&#45;&gt;20</title>
<path fill="none" stroke="black" d="M167.66,-600.98C119.45,-579.76 50.5,-538.49 50.5,-476 50.5,-476 50.5,-476 50.5,-258 50.5,-206.17 97.5,-163 131.92,-138.33"/>
<polygon fill="black" stroke="black" points="134.15,-141.04 140.36,-132.46 130.15,-135.3 134.15,-141.04"/>
</g>
<!-- 2 -->
<g id="node3" class="node">
<title>2</title>
<polygon fill="none" stroke="blue" points="455.5,-277 401.5,-277 401.5,-241 455.5,-241 455.5,-277"/>
<text text-anchor="middle" x="428.5" y="-255.3" font-family="Times,serif" font-size="14.00">add</text>
</g>
<!-- 19 -->
<g id="node20" class="node">
<title>19</title>
<polygon fill="none" stroke="blue" points="347.5,-205 293.5,-205 293.5,-169 347.5,-169 347.5,-205"/>
<text text-anchor="middle" x="320.5" y="-183.3" font-family="Times,serif" font-size="14.00">Call</text>
</g>
<!-- 2&#45;&gt;19 -->
<g id="edge25" class="edge">
<title>2&#45;&gt;19</title>
<path fill="none" stroke="black" d="M402.08,-240.88C388.09,-231.81 370.72,-220.55 355.61,-210.76"/>
<polygon fill="black" stroke="black" points="357.32,-207.69 347.02,-205.19 353.51,-213.57 357.32,-207.69"/>
</g>
<!-- 3 -->
<g id="node4" class="node">
<title>3</title>
<polygon fill="none" stroke="blue" points="533.5,-811.08 327.5,-811.08 327.5,-775.08 533.5,-775.08 533.5,-811.08"/>
<text text-anchor="middle" x="430.5" y="-789.38" font-family="Times,serif" font-size="14.00">annotation.compiler_begin</text>
</g>
<!-- 3&#45;&gt;6 -->
<g id="edge1" class="edge">
<title>3&#45;&gt;6</title>
<path fill="none" stroke="black" d="M405.23,-774.88C380.93,-758.34 344.05,-733.23 317.25,-714.98"/>
<polygon fill="black" stroke="black" points="319.17,-712.05 308.93,-709.32 315.23,-717.84 319.17,-712.05"/>
</g>
<!-- 9 -->
<g id="node10" class="node">
<title>9</title>
<polygon fill="none" stroke="blue" points="132.5,-493 78.5,-493 78.5,-457 132.5,-457 132.5,-493"/>
<text text-anchor="middle" x="105.5" y="-471.3" font-family="Times,serif" font-size="14.00">Call</text>
</g>
<!-- 3&#45;&gt;9 -->
<g id="edge7" class="edge">
<title>3&#45;&gt;9</title>
<path fill="none" stroke="black" d="M392.07,-774.97C308.22,-737.44 115.68,-650.22 107.5,-637 82.15,-596.03 90.03,-537.25 97.88,-503.21"/>
<polygon fill="black" stroke="black" points="101.38,-503.63 100.39,-493.09 94.59,-501.95 101.38,-503.63"/>
</g>
<!-- 12 -->
<g id="node13" class="node">
<title>12</title>
<polygon fill="none" stroke="blue" points="311.5,-277 257.5,-277 257.5,-241 311.5,-241 311.5,-277"/>
<text text-anchor="middle" x="284.5" y="-255.3" font-family="Times,serif" font-size="14.00">Call</text>
</g>
<!-- 3&#45;&gt;12 -->
<g id="edge13" class="edge">
<title>3&#45;&gt;12</title>
<path fill="none" stroke="black" d="M429.68,-774.78C426.95,-723.07 416.9,-570.7 391.5,-529 377.26,-505.61 356.81,-515.7 341.5,-493 297.85,-428.27 287.56,-333.39 285.18,-287.24"/>
<polygon fill="black" stroke="black" points="288.67,-286.96 284.75,-277.11 281.68,-287.26 288.67,-286.96"/>
</g>
<!-- 15 -->
<g id="node16" class="node">
<title>15</title>
<polygon fill="none" stroke="blue" points="476.5,-493 422.5,-493 422.5,-457 476.5,-457 476.5,-493"/>
<text text-anchor="middle" x="449.5" y="-471.3" font-family="Times,serif" font-size="14.00">Call</text>
</g>
<!-- 3&#45;&gt;15 -->
<g id="edge17" class="edge">
<title>3&#45;&gt;15</title>
<path fill="none" stroke="black" d="M431.55,-774.64C434.7,-722.28 444.08,-566.18 447.88,-503"/>
<polygon fill="black" stroke="black" points="451.37,-503.2 448.48,-493 444.38,-502.78 451.37,-503.2"/>
</g>
<!-- 18 -->
<g id="node19" class="node">
<title>18</title>
<polygon fill="none" stroke="blue" points="383.5,-277 329.5,-277 329.5,-241 383.5,-241 383.5,-277"/>
<text text-anchor="middle" x="356.5" y="-255.3" font-family="Times,serif" font-size="14.00">Call</text>
</g>
<!-- 3&#45;&gt;18 -->
<g id="edge23" class="edge">
<title>3&#45;&gt;18</title>
<path fill="none" stroke="black" d="M443.39,-775.05C464.59,-745.29 504.5,-681.14 504.5,-620 504.5,-620 504.5,-620 504.5,-402 504.5,-370.45 433.6,-314.55 389.94,-283.12"/>
<polygon fill="black" stroke="black" points="391.78,-280.13 381.61,-277.17 387.72,-285.83 391.78,-280.13"/>
</g>
<!-- 4 -->
<g id="node5" class="node">
<title>4</title>
<polygon fill="none" stroke="blue" points="218.5,-493 150.5,-493 150.5,-457 218.5,-457 218.5,-493"/>
<text text-anchor="middle" x="184.5" y="-471.3" font-family="Times,serif" font-size="14.00">nn.relu</text>
</g>
<!-- 10 -->
<g id="node11" class="node">
<title>10</title>
<polygon fill="none" stroke="blue" points="211.5,-421 157.5,-421 157.5,-385 211.5,-385 211.5,-421"/>
<text text-anchor="middle" x="184.5" y="-399.3" font-family="Times,serif" font-size="14.00">Call</text>
</g>
<!-- 4&#45;&gt;10 -->
<g id="edge9" class="edge">
<title>4&#45;&gt;10</title>
<path fill="none" stroke="black" d="M184.5,-456.7C184.5,-448.98 184.5,-439.71 184.5,-431.11"/>
<polygon fill="black" stroke="black" points="188,-431.1 184.5,-421.1 181,-431.1 188,-431.1"/>
</g>
<!-- 5 -->
<g id="node6" class="node">
<title>5</title>
<polygon fill="none" stroke="blue" points="382.5,-709 328.5,-709 328.5,-673 382.5,-673 382.5,-709"/>
<text text-anchor="middle" x="355.5" y="-687.3" font-family="Times,serif" font-size="14.00">abs</text>
</g>
<!-- 7 -->
<g id="node8" class="node">
<title>7</title>
<polygon fill="none" stroke="blue" points="382.5,-637 328.5,-637 328.5,-601 382.5,-601 382.5,-637"/>
<text text-anchor="middle" x="355.5" y="-615.3" font-family="Times,serif" font-size="14.00">Call</text>
</g>
<!-- 5&#45;&gt;7 -->
<g id="edge3" class="edge">
<title>5&#45;&gt;7</title>
<path fill="none" stroke="black" d="M355.5,-672.7C355.5,-664.98 355.5,-655.71 355.5,-647.11"/>
<polygon fill="black" stroke="black" points="359,-647.1 355.5,-637.1 352,-647.1 359,-647.1"/>
</g>
<!-- 6&#45;&gt;7 -->
<g id="edge4" class="edge">
<title>6&#45;&gt;7</title>
<path fill="none" stroke="black" d="M301.3,-672.7C310.1,-664.14 320.88,-653.66 330.5,-644.3"/>
<polygon fill="black" stroke="black" points="333.18,-646.58 337.91,-637.1 328.3,-641.57 333.18,-646.58"/>
</g>
<!-- 7&#45;&gt;8 -->
<g id="edge6" class="edge">
<title>7&#45;&gt;8</title>
<path fill="none" stroke="black" d="M328.44,-605.05C325.43,-603.66 322.41,-602.29 319.5,-601 288.88,-587.44 253.71,-572.96 228,-562.56"/>
<polygon fill="black" stroke="black" points="229.21,-559.28 218.63,-558.79 226.6,-565.77 229.21,-559.28"/>
</g>
<!-- 7&#45;&gt;14 -->
<g id="edge16" class="edge">
<title>7&#45;&gt;14</title>
<path fill="none" stroke="black" d="M355.5,-600.7C355.5,-592.98 355.5,-583.71 355.5,-575.11"/>
<polygon fill="black" stroke="black" points="359,-575.1 355.5,-565.1 352,-575.1 359,-575.1"/>
</g>
<!-- 8&#45;&gt;9 -->
<g id="edge8" class="edge">
<title>8&#45;&gt;9</title>
<path fill="none" stroke="black" d="M170.24,-528.7C159.41,-519.88 146.08,-509.03 134.34,-499.47"/>
<polygon fill="black" stroke="black" points="136.48,-496.7 126.51,-493.1 132.06,-502.13 136.48,-496.7"/>
</g>
<!-- 9&#45;&gt;10 -->
<g id="edge10" class="edge">
<title>9&#45;&gt;10</title>
<path fill="none" stroke="black" d="M125.03,-456.7C134.88,-447.97 146.99,-437.24 157.7,-427.75"/>
<polygon fill="black" stroke="black" points="160.03,-430.36 165.2,-421.1 155.39,-425.12 160.03,-430.36"/>
</g>
<!-- 10&#45;&gt;11 -->
<g id="edge12" class="edge">
<title>10&#45;&gt;11</title>
<path fill="none" stroke="black" d="M197.85,-384.7C204.26,-376.39 212.06,-366.28 219.11,-357.14"/>
<polygon fill="black" stroke="black" points="221.97,-359.16 225.31,-349.1 216.43,-354.88 221.97,-359.16"/>
</g>
<!-- 11&#45;&gt;12 -->
<g id="edge14" class="edge">
<title>11&#45;&gt;12</title>
<path fill="none" stroke="black" d="M249.87,-312.7C255.22,-304.56 261.7,-294.69 267.61,-285.7"/>
<polygon fill="black" stroke="black" points="270.69,-287.38 273.26,-277.1 264.84,-283.54 270.69,-287.38"/>
</g>
<!-- 12&#45;&gt;19 -->
<g id="edge26" class="edge">
<title>12&#45;&gt;19</title>
<path fill="none" stroke="black" d="M293.4,-240.7C297.5,-232.73 302.45,-223.1 306.99,-214.26"/>
<polygon fill="black" stroke="black" points="310.24,-215.6 311.7,-205.1 304.02,-212.4 310.24,-215.6"/>
</g>
<!-- 13 -->
<g id="node14" class="node">
<title>13</title>
<polygon fill="none" stroke="blue" points="404.5,-493 350.5,-493 350.5,-457 404.5,-457 404.5,-493"/>
<text text-anchor="middle" x="377.5" y="-471.3" font-family="Times,serif" font-size="14.00">tanh</text>
</g>
<!-- 16 -->
<g id="node17" class="node">
<title>16</title>
<polygon fill="none" stroke="blue" points="413.5,-421 359.5,-421 359.5,-385 413.5,-385 413.5,-421"/>
<text text-anchor="middle" x="386.5" y="-399.3" font-family="Times,serif" font-size="14.00">Call</text>
</g>
<!-- 13&#45;&gt;16 -->
<g id="edge19" class="edge">
<title>13&#45;&gt;16</title>
<path fill="none" stroke="black" d="M379.72,-456.7C380.72,-448.98 381.91,-439.71 383.01,-431.11"/>
<polygon fill="black" stroke="black" points="386.5,-431.47 384.3,-421.1 379.55,-430.58 386.5,-431.47"/>
</g>
<!-- 14&#45;&gt;15 -->
<g id="edge18" class="edge">
<title>14&#45;&gt;15</title>
<path fill="none" stroke="black" d="M378.74,-528.7C390.69,-519.8 405.42,-508.82 418.35,-499.2"/>
<polygon fill="black" stroke="black" points="420.6,-501.88 426.53,-493.1 416.42,-496.27 420.6,-501.88"/>
</g>
<!-- 15&#45;&gt;16 -->
<g id="edge20" class="edge">
<title>15&#45;&gt;16</title>
<path fill="none" stroke="black" d="M433.93,-456.7C426.3,-448.22 416.98,-437.86 408.62,-428.58"/>
<polygon fill="black" stroke="black" points="411.19,-426.2 401.89,-421.1 405.98,-430.88 411.19,-426.2"/>
</g>
<!-- 16&#45;&gt;17 -->
<g id="edge22" class="edge">
<title>16&#45;&gt;17</title>
<path fill="none" stroke="black" d="M379.08,-384.7C375.71,-376.81 371.63,-367.3 367.88,-358.55"/>
<polygon fill="black" stroke="black" points="370.99,-356.92 363.83,-349.1 364.55,-359.67 370.99,-356.92"/>
</g>
<!-- 17&#45;&gt;18 -->
<g id="edge24" class="edge">
<title>17&#45;&gt;18</title>
<path fill="none" stroke="black" d="M356.5,-312.7C356.5,-304.98 356.5,-295.71 356.5,-287.11"/>
<polygon fill="black" stroke="black" points="360,-287.1 356.5,-277.1 353,-287.1 360,-287.1"/>
</g>
<!-- 18&#45;&gt;19 -->
<g id="edge27" class="edge">
<title>18&#45;&gt;19</title>
<path fill="none" stroke="black" d="M347.6,-240.7C343.5,-232.73 338.55,-223.1 334.01,-214.26"/>
<polygon fill="black" stroke="black" points="336.98,-212.4 329.3,-205.1 330.76,-215.6 336.98,-212.4"/>
</g>
<!-- 19&#45;&gt;20 -->
<g id="edge29" class="edge">
<title>19&#45;&gt;20</title>
<path fill="none" stroke="black" d="M293.5,-173.65C268.64,-162.27 231.55,-145.3 204.04,-132.72"/>
<polygon fill="black" stroke="black" points="205.3,-129.44 194.75,-128.47 202.38,-135.81 205.3,-129.44"/>
</g>
<!-- 21 -->
<g id="node22" class="node">
<title>21</title>
<polygon fill="none" stroke="blue" points="335,-61 0,-61 0,-23 335,-23 335,-61"/>
<text text-anchor="middle" x="167.5" y="-45.8" font-family="Times,serif" font-size="14.00">Func</text>
<text text-anchor="middle" x="167.5" y="-30.8" font-family="Times,serif" font-size="14.00">[Var(data, ty=TensorType([10, 10], float32))]</text>
</g>
<!-- 20&#45;&gt;21 -->
<g id="edge30" class="edge">
<title>20&#45;&gt;21</title>
<path fill="none" stroke="black" d="M167.5,-96.81C167.5,-89.11 167.5,-79.82 167.5,-71.15"/>
<polygon fill="black" stroke="black" points="171,-71.02 167.5,-61.02 164,-71.02 171,-71.02"/>
</g>
</g>
</svg>