<?xml version="1.0" encoding="UTF-8" standalone="no"?>
<!DOCTYPE svg PUBLIC "-//W3C//DTD SVG 1.1//EN"
 "http://www.w3.org/Graphics/SVG/1.1/DTD/svg11.dtd">
<!-- Generated by graphviz version 2.43.0 (0)
 -->
<!-- Title: cluster_main Pages: 1 -->
<svg width="512pt" height="336pt"
 viewBox="0.00 0.00 512.24 336.22" xmlns="http://www.w3.org/2000/svg" xmlns:xlink="http://www.w3.org/1999/xlink">
<g id="graph0" class="graph" transform="scale(1 1) rotate(0) translate(4 332.22)">
<title>cluster_main</title>
<polygon fill="white" stroke="transparent" points="-4,4 -4,-332.22 508.24,-332.22 508.24,4 -4,4"/>
<text text-anchor="middle" x="252.12" y="-7.8" font-family="Times,serif" font-size="14.00">main</text>
<!-- 0 -->
<g id="node1" class="node">
<title>0</title>
<ellipse fill="none" stroke="black" cx="81.88" cy="-301.35" rx="76.24" ry="26.74"/>
<text text-anchor="middle" x="81.88" y="-305.15" font-family="Times,serif" font-size="14.00">AwesomeVar</text>
<text text-anchor="middle" x="81.88" y="-290.15" font-family="Times,serif" font-size="14.00">name_hint x</text>
</g>
<!-- 4 -->
<g id="node4" class="node">
<title>4</title>
<ellipse fill="none" stroke="black" cx="166.88" cy="-211.61" rx="166.75" ry="26.74"/>
<text text-anchor="middle" x="166.88" y="-215.41" font-family="Times,serif" font-size="14.00">Call GlobalVar</text>
<text text-anchor="middle" x="166.88" y="-200.41" font-family="Times,serif" font-size="14.00">GlobalVar.name_hint: AddFunc</text>
</g>
<!-- 0&#45;&gt;4 -->
<g id="edge1" class="edge">
<title>0&#45;&gt;4</title>
<path fill="none" stroke="black" d="M106.01,-275.44C115,-266.16 125.36,-255.47 134.95,-245.57"/>
<polygon fill="black" stroke="black" points="137.65,-247.81 142.1,-238.19 132.62,-242.94 137.65,-247.81"/>
</g>
<!-- 1 -->
<g id="node2" class="node">
<title>1</title>
<ellipse fill="none" stroke="black" cx="252.88" cy="-301.35" rx="76.24" ry="26.74"/>
<text text-anchor="middle" x="252.88" y="-305.15" font-family="Times,serif" font-size="14.00">AwesomeVar</text>
<text text-anchor="middle" x="252.88" y="-290.15" font-family="Times,serif" font-size="14.00">name_hint y</text>
</g>
<!-- 1&#45;&gt;4 -->
<g id="edge2" class="edge">
<title>1&#45;&gt;4</title>
<path fill="none" stroke="black" d="M228.46,-275.44C219.36,-266.16 208.88,-255.47 199.18,-245.57"/>
<polygon fill="black" stroke="black" points="201.45,-242.88 191.95,-238.19 196.45,-247.78 201.45,-242.88"/>
</g>
<!-- 2 -->
<g id="node3" class="node">
<title>2</title>
<ellipse fill="none" stroke="black" cx="427.88" cy="-211.61" rx="76.24" ry="26.74"/>
<text text-anchor="middle" x="427.88" y="-215.41" font-family="Times,serif" font-size="14.00">AwesomeVar</text>
<text text-anchor="middle" x="427.88" y="-200.41" font-family="Times,serif" font-size="14.00">name_hint z</text>
</g>
<!-- 5 -->
<g id="node5" class="node">
<title>5</title>
<ellipse fill="none" stroke="black" cx="296.88" cy="-121.87" rx="166.75" ry="26.74"/>
<text text-anchor="middle" x="296.88" y="-125.67" font-family="Times,serif" font-size="14.00">Call GlobalVar</text>
<text text-anchor="middle" x="296.88" y="-110.67" font-family="Times,serif" font-size="14.00">GlobalVar.name_hint: AddFunc</text>
</g>
<!-- 2&#45;&gt;5 -->
<g id="edge3" class="edge">
<title>2&#45;&gt;5</title>
<path fill="none" stroke="black" d="M393.46,-187.56C378.09,-177.27 359.76,-164.99 343.22,-153.91"/>
<polygon fill="black" stroke="black" points="345.01,-150.89 334.75,-148.24 341.11,-156.71 345.01,-150.89"/>
</g>
<!-- 4&#45;&gt;5 -->
<g id="edge4" class="edge">
<title>4&#45;&gt;5</title>
<path fill="none" stroke="black" d="M204.48,-185.23C218.9,-175.5 235.52,-164.28 250.65,-154.07"/>
<polygon fill="black" stroke="black" points="253.03,-156.69 259.36,-148.19 249.11,-150.88 253.03,-156.69"/>
</g>
<!-- 6 -->
<g id="node6" class="node">
<title>6</title>
<polygon fill="none" stroke="black" points="324.88,-59 268.88,-59 268.88,-23 324.88,-23 324.88,-59"/>
<text text-anchor="middle" x="296.88" y="-37.3" font-family="Times,serif" font-size="14.00">Func </text>
</g>
<!-- 5&#45;&gt;6 -->
<g id="edge5" class="edge">
<title>5&#45;&gt;6</title>
<path fill="none" stroke="black" d="M296.88,-94.61C296.88,-86.51 296.88,-77.57 296.88,-69.39"/>
<polygon fill="black" stroke="black" points="300.38,-69.22 296.88,-59.22 293.38,-69.22 300.38,-69.22"/>
</g>
</g>
</svg>