<?xml version="1.0" encoding="UTF-8" standalone="no"?>
<!DOCTYPE svg PUBLIC "-//W3C//DTD SVG 1.1//EN"
 "http://www.w3.org/Graphics/SVG/1.1/DTD/svg11.dtd">
<!-- Generated by graphviz version 2.43.0 (0)
 -->
<!-- Title: %3 Pages: 1 -->
<svg width="628pt" height="377pt"
 viewBox="0.00 0.00 628.00 377.17" xmlns="http://www.w3.org/2000/svg" xmlns:xlink="http://www.w3.org/1999/xlink">
<g id="graph0" class="graph" transform="scale(1 1) rotate(0) translate(4 373.17)">
<title>%3</title>
<polygon fill="white" stroke="transparent" points="-4,4 -4,-373.17 624,-373.17 624,4 -4,4"/>
<g id="clust1" class="cluster">
<title>cluster_g0</title>
<polygon fill="none" stroke="red" points="8,-8 8,-361.17 612,-361.17 612,-8 8,-8"/>
<text text-anchor="middle" x="310" y="-345.97" font-family="Times,serif" font-size="14.00">g0</text>
</g>
<!-- 0 -->
<g id="node1" class="node">
<title>0</title>
<ellipse fill="none" stroke="blue" cx="435" cy="-282.08" rx="82.96" ry="48.17"/>
<text text-anchor="middle" x="435" y="-300.88" font-family="Times,serif" font-size="14.00">Var(Input)</text>
<text text-anchor="middle" x="435" y="-285.88" font-family="Times,serif" font-size="14.00">name_hint: x0</text>
<text text-anchor="middle" x="435" y="-270.88" font-family="Times,serif" font-size="14.00">shape: (8, 8)</text>
<text text-anchor="middle" x="435" y="-255.88" font-family="Times,serif" font-size="14.00">dtype: float32</text>
</g>
<!-- 3 -->
<g id="node4" class="node">
<title>3</title>
<polygon fill="none" stroke="blue" points="434,-198 380,-198 380,-162 434,-162 434,-198"/>
<text text-anchor="middle" x="407" y="-176.3" font-family="Times,serif" font-size="14.00">Call</text>
</g>
<!-- 0&#45;&gt;3 -->
<g id="edge2" class="edge">
<title>0&#45;&gt;3</title>
<path fill="none" stroke="black" d="M421.98,-234.56C419.45,-225.51 416.88,-216.31 414.6,-208.15"/>
<polygon fill="black" stroke="black" points="417.95,-207.14 411.88,-198.45 411.21,-209.03 417.95,-207.14"/>
</g>
<!-- 5 -->
<g id="node6" class="node">
<title>5</title>
<polygon fill="none" stroke="blue" points="307,-198 253,-198 253,-162 307,-162 307,-198"/>
<text text-anchor="middle" x="280" y="-176.3" font-family="Times,serif" font-size="14.00">Call</text>
</g>
<!-- 0&#45;&gt;5 -->
<g id="edge5" class="edge">
<title>0&#45;&gt;5</title>
<path fill="none" stroke="black" d="M380.35,-245.8C358.58,-231.74 334.18,-215.98 314.88,-203.52"/>
<polygon fill="black" stroke="black" points="316.7,-200.53 306.4,-198.05 312.91,-206.41 316.7,-200.53"/>
</g>
<!-- 1 -->
<g id="node2" class="node">
<title>1</title>
<ellipse fill="none" stroke="blue" cx="252" cy="-282.08" rx="82.96" ry="48.17"/>
<text text-anchor="middle" x="252" y="-300.88" font-family="Times,serif" font-size="14.00">Var(Input)</text>
<text text-anchor="middle" x="252" y="-285.88" font-family="Times,serif" font-size="14.00">name_hint: y0</text>
<text text-anchor="middle" x="252" y="-270.88" font-family="Times,serif" font-size="14.00">shape: (8, 8)</text>
<text text-anchor="middle" x="252" y="-255.88" font-family="Times,serif" font-size="14.00">dtype: float32</text>
</g>
<!-- 1&#45;&gt;3 -->
<g id="edge3" class="edge">
<title>1&#45;&gt;3</title>
<path fill="none" stroke="black" d="M306.65,-245.8C328.42,-231.74 352.82,-215.98 372.12,-203.52"/>
<polygon fill="black" stroke="black" points="374.09,-206.41 380.6,-198.05 370.3,-200.53 374.09,-206.41"/>
</g>
<!-- 1&#45;&gt;5 -->
<g id="edge6" class="edge">
<title>1&#45;&gt;5</title>
<path fill="none" stroke="black" d="M265.02,-234.56C267.55,-225.51 270.12,-216.31 272.4,-208.15"/>
<polygon fill="black" stroke="black" points="275.79,-209.03 275.12,-198.45 269.05,-207.14 275.79,-209.03"/>
</g>
<!-- 2 -->
<g id="node3" class="node">
<title>2</title>
<polygon fill="none" stroke="blue" points="590,-300.08 536,-300.08 536,-264.08 590,-264.08 590,-300.08"/>
<text text-anchor="middle" x="563" y="-278.38" font-family="Times,serif" font-size="14.00">add</text>
</g>
<!-- 2&#45;&gt;3 -->
<g id="edge1" class="edge">
<title>2&#45;&gt;3</title>
<path fill="none" stroke="black" d="M552.76,-263.65C546.35,-253.92 537.35,-242.15 527,-234 502.2,-214.47 469.08,-200.55 443.92,-191.9"/>
<polygon fill="black" stroke="black" points="444.95,-188.55 434.35,-188.72 442.74,-195.19 444.95,-188.55"/>
</g>
<!-- 6 -->
<g id="node7" class="node">
<title>6</title>
<polygon fill="none" stroke="blue" points="338,-126 282,-126 282,-90 338,-90 338,-126"/>
<text text-anchor="middle" x="310" y="-104.3" font-family="Times,serif" font-size="14.00">Tuple</text>
</g>
<!-- 3&#45;&gt;6 -->
<g id="edge7" class="edge">
<title>3&#45;&gt;6</title>
<path fill="none" stroke="black" d="M383.02,-161.7C370.69,-152.8 355.48,-141.82 342.15,-132.2"/>
<polygon fill="black" stroke="black" points="343.86,-129.12 333.7,-126.1 339.76,-134.79 343.86,-129.12"/>
</g>
<!-- 4 -->
<g id="node5" class="node">
<title>4</title>
<polygon fill="none" stroke="blue" points="151.5,-300.08 74.5,-300.08 74.5,-264.08 151.5,-264.08 151.5,-300.08"/>
<text text-anchor="middle" x="113" y="-278.38" font-family="Times,serif" font-size="14.00">subtract</text>
</g>
<!-- 4&#45;&gt;5 -->
<g id="edge4" class="edge">
<title>4&#45;&gt;5</title>
<path fill="none" stroke="black" d="M127.36,-263.81C136.06,-254.13 147.81,-242.36 160,-234 185.75,-216.34 218.34,-202.39 243.06,-193.25"/>
<polygon fill="black" stroke="black" points="244.56,-196.43 252.79,-189.75 242.19,-189.84 244.56,-196.43"/>
</g>
<!-- 5&#45;&gt;6 -->
<g id="edge8" class="edge">
<title>5&#45;&gt;6</title>
<path fill="none" stroke="black" d="M287.42,-161.7C290.79,-153.81 294.87,-144.3 298.62,-135.55"/>
<polygon fill="black" stroke="black" points="301.95,-136.67 302.67,-126.1 295.51,-133.92 301.95,-136.67"/>
</g>
<!-- 7 -->
<g id="node8" class="node">
<title>7</title>
<polygon fill="none" stroke="blue" points="604,-54 16,-54 16,-16 604,-16 604,-54"/>
<text text-anchor="middle" x="310" y="-38.8" font-family="Times,serif" font-size="14.00">Func</text>
<text text-anchor="middle" x="310" y="-23.8" font-family="Times,serif" font-size="14.00">[Var(x0, ty=TensorType([8, 8], float32)), Var(y0, ty=TensorType([8, 8], float32))]</text>
</g>
<!-- 6&#45;&gt;7 -->
<g id="edge9" class="edge">
<title>6&#45;&gt;7</title>
<path fill="none" stroke="black" d="M310,-89.81C310,-82.11 310,-72.82 310,-64.15"/>
<polygon fill="black" stroke="black" points="313.5,-64.02 310,-54.02 306.5,-64.02 313.5,-64.02"/>
</g>
</g>
</svg>