<?xml version="1.0" encoding="UTF-8" standalone="no"?>
<!DOCTYPE svg PUBLIC "-//W3C//DTD SVG 1.1//EN"
 "http://www.w3.org/Graphics/SVG/1.1/DTD/svg11.dtd">
<!-- Generated by graphviz version 2.43.0 (0)
 -->
<!-- Title: cluster_main Pages: 1 -->
<svg width="354pt" height="271pt"
 viewBox="0.00 0.00 354.05 271.17" xmlns="http://www.w3.org/2000/svg" xmlns:xlink="http://www.w3.org/1999/xlink">
<g id="graph0" class="graph" transform="scale(1 1) rotate(0) translate(4 267.17)">
<title>cluster_main</title>
<polygon fill="white" stroke="transparent" points="-4,4 -4,-267.17 350.05,-267.17 350.05,4 -4,4"/>
<text text-anchor="middle" x="173.02" y="-7.8" font-family="Times,serif" font-size="14.00">main</text>
<!-- 0 -->
<g id="node1" class="node">
<title>0</title>
<ellipse fill="none" stroke="blue" cx="82.02" cy="-215.08" rx="82.05" ry="48.17"/>
<text text-anchor="middle" x="82.02" y="-233.88" font-family="Times,serif" font-size="14.00">Var(Input)</text>
<text text-anchor="middle" x="82.02" y="-218.88" font-family="Times,serif" font-size="14.00">name_hint: a</text>
<text text-anchor="middle" x="82.02" y="-203.88" font-family="Times,serif" font-size="14.00">shape: (1,)</text>
<text text-anchor="middle" x="82.02" y="-188.88" font-family="Times,serif" font-size="14.00">dtype: float32</text>
</g>
<!-- 3 -->
<g id="node3" class="node">
<title>3</title>
<polygon fill="none" stroke="blue" points="210.52,-131 135.52,-131 135.52,-95 210.52,-95 210.52,-131"/>
<text text-anchor="middle" x="173.02" y="-109.3" font-family="Times,serif" font-size="14.00">Call add</text>
</g>
<!-- 0&#45;&gt;3 -->
<g id="edge1" class="edge">
<title>0&#45;&gt;3</title>
<path fill="none" stroke="black" d="M120.09,-172.22C130.47,-160.81 141.37,-148.81 150.57,-138.69"/>
<polygon fill="black" stroke="black" points="153.4,-140.78 157.54,-131.03 148.22,-136.08 153.4,-140.78"/>
</g>
<!-- 1 -->
<g id="node2" class="node">
<title>1</title>
<ellipse fill="none" stroke="blue" cx="264.02" cy="-215.08" rx="82.05" ry="48.17"/>
<text text-anchor="middle" x="264.02" y="-233.88" font-family="Times,serif" font-size="14.00">Var(Input)</text>
<text text-anchor="middle" x="264.02" y="-218.88" font-family="Times,serif" font-size="14.00">name_hint: b</text>
<text text-anchor="middle" x="264.02" y="-203.88" font-family="Times,serif" font-size="14.00">shape: (1,)</text>
<text text-anchor="middle" x="264.02" y="-188.88" font-family="Times,serif" font-size="14.00">dtype: float32</text>
</g>
<!-- 1&#45;&gt;3 -->
<g id="edge2" class="edge">
<title>1&#45;&gt;3</title>
<path fill="none" stroke="black" d="M225.96,-172.22C215.58,-160.81 204.68,-148.81 195.48,-138.69"/>
<polygon fill="black" stroke="black" points="197.83,-136.08 188.51,-131.03 192.65,-140.78 197.83,-136.08"/>
</g>
<!-- 4 -->
<g id="node4" class="node">
<title>4</title>
<polygon fill="none" stroke="blue" points="201.02,-59 145.02,-59 145.02,-23 201.02,-23 201.02,-59"/>
<text text-anchor="middle" x="173.02" y="-37.3" font-family="Times,serif" font-size="14.00">Func </text>
</g>
<!-- 3&#45;&gt;4 -->
<g id="edge3" class="edge">
<title>3&#45;&gt;4</title>
<path fill="none" stroke="black" d="M173.02,-94.7C173.02,-86.98 173.02,-77.71 173.02,-69.11"/>
<polygon fill="black" stroke="black" points="176.52,-69.1 173.02,-59.1 169.52,-69.1 176.52,-69.1"/>
</g>
</g>
</svg>