<?xml version="1.0" encoding="UTF-8" standalone="no"?>
<!DOCTYPE svg PUBLIC "-//W3C//DTD SVG 1.1//EN"
 "http://www.w3.org/Graphics/SVG/1.1/DTD/svg11.dtd">
<!-- Generated by graphviz version 2.43.0 (0)
 -->
<!-- Title: cluster_AddFunc Pages: 1 -->
<svg width="403pt" height="231pt"
 viewBox="0.00 0.00 403.37 230.74" xmlns="http://www.w3.org/2000/svg" xmlns:xlink="http://www.w3.org/1999/xlink">
<g id="graph0" class="graph" transform="scale(1 1) rotate(0) translate(4 226.74)">
<title>cluster_AddFunc</title>
<polygon fill="white" stroke="transparent" points="-4,4 -4,-226.74 399.37,-226.74 399.37,4 -4,4"/>
<text text-anchor="middle" x="197.68" y="-7.8" font-family="Times,serif" font-size="14.00">AddFunc</text>
<!-- 0 -->
<g id="node1" class="node">
<title>0</title>
<ellipse fill="none" stroke="black" cx="76.37" cy="-195.87" rx="76.24" ry="26.74"/>
<text text-anchor="middle" x="76.37" y="-199.67" font-family="Times,serif" font-size="14.00">Var(Input)</text>
<text text-anchor="middle" x="76.37" y="-184.67" font-family="Times,serif" font-size="14.00">name_hint: x</text>
</g>
<!-- 3 -->
<g id="node4" class="node">
<title>3</title>
<polygon fill="none" stroke="black" points="274.37,-133 220.37,-133 220.37,-97 274.37,-97 274.37,-133"/>
<text text-anchor="middle" x="247.37" y="-111.3" font-family="Times,serif" font-size="14.00">Call</text>
</g>
<!-- 0&#45;&gt;3 -->
<g id="edge2" class="edge">
<title>0&#45;&gt;3</title>
<path fill="none" stroke="black" d="M121.74,-173.94C149.68,-161.06 185,-144.76 211.07,-132.74"/>
<polygon fill="black" stroke="black" points="212.62,-135.88 220.23,-128.52 209.68,-129.53 212.62,-135.88"/>
</g>
<!-- 1 -->
<g id="node2" class="node">
<title>1</title>
<ellipse fill="none" stroke="black" cx="247.37" cy="-195.87" rx="76.24" ry="26.74"/>
<text text-anchor="middle" x="247.37" y="-199.67" font-family="Times,serif" font-size="14.00">Var(Input)</text>
<text text-anchor="middle" x="247.37" y="-184.67" font-family="Times,serif" font-size="14.00">name_hint: y</text>
</g>
<!-- 1&#45;&gt;3 -->
<g id="edge3" class="edge">
<title>1&#45;&gt;3</title>
<path fill="none" stroke="black" d="M247.37,-168.61C247.37,-160.51 247.37,-151.57 247.37,-143.39"/>
<polygon fill="black" stroke="black" points="250.87,-143.22 247.37,-133.22 243.87,-143.22 250.87,-143.22"/>
</g>
<!-- 2 -->
<g id="node3" class="node">
<title>2</title>
<polygon fill="none" stroke="black" points="395.37,-213.87 341.37,-213.87 341.37,-177.87 395.37,-177.87 395.37,-213.87"/>
<text text-anchor="middle" x="368.37" y="-192.17" font-family="Times,serif" font-size="14.00">add</text>
</g>
<!-- 2&#45;&gt;3 -->
<g id="edge1" class="edge">
<title>2&#45;&gt;3</title>
<path fill="none" stroke="black" d="M344.9,-177.67C340.76,-174.73 336.46,-171.74 332.37,-169 316.43,-158.32 298.43,-147 283.12,-137.57"/>
<polygon fill="black" stroke="black" points="284.81,-134.5 274.45,-132.26 281.15,-140.47 284.81,-134.5"/>
</g>
<!-- 4 -->
<g id="node5" class="node">
<title>4</title>
<polygon fill="none" stroke="black" points="308.37,-61 186.37,-61 186.37,-23 308.37,-23 308.37,-61"/>
<text text-anchor="middle" x="247.37" y="-45.8" font-family="Times,serif" font-size="14.00">Func</text>
<text text-anchor="middle" x="247.37" y="-30.8" font-family="Times,serif" font-size="14.00">[Var(x), Var(y)]</text>
</g>
<!-- 3&#45;&gt;4 -->
<g id="edge4" class="edge">
<title>3&#45;&gt;4</title>
<path fill="none" stroke="black" d="M247.37,-96.81C247.37,-89.11 247.37,-79.82 247.37,-71.15"/>
<polygon fill="black" stroke="black" points="250.87,-71.02 247.37,-61.02 243.87,-71.02 250.87,-71.02"/>
</g>
</g>
</svg>